<svg width="25" height="24" viewBox="0 0 25 24" fill="none" xmlns="http://www.w3.org/2000/svg">
<rect x="1" y="0.5" width="23" height="23" rx="11.5" fill="url(#paint0_linear_22_83)"/>
<path d="M9.18612 18H6.6982V9.98821H9.18612V18ZM7.94082 8.89533C7.14527 8.89533 6.49998 8.23639 6.49998 7.44084C6.49998 7.0587 6.65179 6.69222 6.922 6.42201C7.1922 6.1518 7.55869 6 7.94082 6C8.32295 6 8.68944 6.1518 8.95965 6.42201C9.22985 6.69222 9.38166 7.0587 9.38166 7.44084C9.38166 8.23639 8.73611 8.89533 7.94082 8.89533ZM18.4976 18H16.015V14.0999C16.015 13.1704 15.9963 11.9784 14.7215 11.9784C13.428 11.9784 13.2298 12.9883 13.2298 14.0329V18H10.7445V9.98821H13.1307V11.0811H13.1655C13.4976 10.4516 14.309 9.78732 15.5195 9.78732C18.0374 9.78732 18.5003 11.4454 18.5003 13.599V18H18.4976Z" fill="#2B2B2B"/>
<rect x="1" y="0.5" width="23" height="23" rx="11.5" stroke="url(#paint1_linear_22_83)"/>
<defs>
<linearGradient id="paint0_linear_22_83" x1="12.5" y1="0" x2="12.5" y2="24" gradientUnits="userSpaceOnUse">
<stop stop-color="#00C9FF"/>
<stop offset="1" stop-color="#C7C7C7"/>
</linearGradient>
<linearGradient id="paint1_linear_22_83" x1="12.5" y1="0" x2="12.5" y2="24" gradientUnits="userSpaceOnUse">
<stop stop-color="#00C9FF"/>
<stop offset="1" stop-color="#C7C7C7"/>
</linearGradient>
</defs>
</svg>
