<svg width="24" height="24" viewBox="0 0 24 24" fill="none" xmlns="http://www.w3.org/2000/svg">
<rect x="0.5" y="0.5" width="23" height="23" rx="11.5" fill="url(#paint0_linear_22_81)"/>
<path d="M11.5027 8.92335C9.79966 8.92335 8.42601 10.297 8.42601 12C8.42601 13.703 9.79966 15.0766 11.5027 15.0766C13.2057 15.0766 14.5793 13.703 14.5793 12C14.5793 10.297 13.2057 8.92335 11.5027 8.92335ZM11.5027 14.0002C10.4021 14.0002 9.50244 13.1032 9.50244 12C9.50244 10.8968 10.3995 9.99978 11.5027 9.99978C12.6059 9.99978 13.5029 10.8968 13.5029 12C13.5029 13.1032 12.6032 14.0002 11.5027 14.0002ZM15.4228 8.7975C15.4228 9.19647 15.1015 9.51512 14.7052 9.51512C14.3062 9.51512 13.9875 9.1938 13.9875 8.7975C13.9875 8.40121 14.3089 8.07988 14.7052 8.07988C15.1015 8.07988 15.4228 8.40121 15.4228 8.7975ZM17.4605 9.52583C17.415 8.56454 17.1954 7.71304 16.4912 7.01149C15.7896 6.30994 14.9381 6.09037 13.9768 6.04217C12.9861 5.98594 10.0166 5.98594 9.02581 6.04217C8.06721 6.08769 7.21571 6.30726 6.51148 7.00881C5.80725 7.71036 5.59036 8.56187 5.54216 9.52315C5.48593 10.5139 5.48593 13.4834 5.54216 14.4742C5.58768 15.4355 5.80725 16.287 6.51148 16.9885C7.21571 17.6901 8.06453 17.9096 9.02581 17.9578C10.0166 18.0141 12.9861 18.0141 13.9768 17.9578C14.9381 17.9123 15.7896 17.6927 16.4912 16.9885C17.1927 16.287 17.4123 15.4355 17.4605 14.4742C17.5167 13.4834 17.5167 10.5166 17.4605 9.52583ZM16.1806 15.5372C15.9717 16.062 15.5674 16.4664 15.0399 16.6779C14.25 16.9912 12.3756 16.9189 11.5027 16.9189C10.6297 16.9189 8.75269 16.9885 7.96545 16.6779C7.44063 16.469 7.0363 16.0647 6.82476 15.5372C6.51148 14.7473 6.58377 12.8729 6.58377 12C6.58377 11.1271 6.51415 9.25003 6.82476 8.46279C7.03362 7.93797 7.43795 7.53364 7.96545 7.3221C8.75537 7.00881 10.6297 7.08111 11.5027 7.08111C12.3756 7.08111 14.2526 7.01149 15.0399 7.3221C15.5647 7.53096 15.969 7.93529 16.1806 8.46279C16.4938 9.25271 16.4216 11.1271 16.4216 12C16.4216 12.8729 16.4938 14.75 16.1806 15.5372Z" fill="#2B2B2B"/>
<rect x="0.5" y="0.5" width="23" height="23" rx="11.5" stroke="url(#paint1_linear_22_81)"/>
<defs>
<linearGradient id="paint0_linear_22_81" x1="12" y1="0" x2="12" y2="24" gradientUnits="userSpaceOnUse">
<stop stop-color="#00C9FF"/>
<stop offset="1" stop-color="#C7C7C7"/>
</linearGradient>
<linearGradient id="paint1_linear_22_81" x1="12" y1="0" x2="12" y2="24" gradientUnits="userSpaceOnUse">
<stop stop-color="#00C9FF"/>
<stop offset="1" stop-color="#C7C7C7"/>
</linearGradient>
</defs>
</svg>
