<svg width="48" height="48" viewBox="0 0 48 48" fill="none" xmlns="http://www.w3.org/2000/svg">
<path d="M11.3089 18.1104C10.8402 18.6666 10.0903 19.104 9.34035 19.0415C9.24661 18.2916 9.61533 17.4917 10.0465 17.0042C10.5153 16.4355 11.3339 16.0293 12.0026 15.998C12.0776 16.773 11.7714 17.5417 11.3089 18.1104ZM11.9901 19.1853C10.9027 19.1228 9.97155 19.804 9.45909 19.804C8.93413 19.804 8.1467 19.2165 7.28427 19.2353C6.16561 19.254 5.1282 19.8852 4.55949 20.8914C3.38459 22.91 4.25327 25.891 5.39068 27.5346C5.94688 28.347 6.60933 29.2407 7.48425 29.2095C8.31543 29.1782 8.64041 28.672 9.64033 28.672C10.6465 28.672 10.9402 29.2095 11.8151 29.197C12.7213 29.1782 13.29 28.3845 13.8462 27.5721C14.4774 26.6472 14.7399 25.7535 14.7524 25.7035C14.7337 25.6848 13.0025 25.0223 12.9838 23.0225C12.9651 21.3476 14.3524 20.5539 14.4149 20.5039C13.6337 19.3415 12.4151 19.2165 11.9901 19.1853ZM18.2646 16.923V29.1032H20.1582V24.9411H22.7767C25.1703 24.9411 26.8452 23.2974 26.8452 20.9226C26.8452 18.5478 25.1953 16.923 22.8392 16.923H18.2646ZM20.1582 18.5166H22.3393C23.9829 18.5166 24.9203 19.3915 24.9203 20.9289C24.9203 22.4663 23.9829 23.3537 22.333 23.3537H20.1582V18.5166ZM30.2949 29.197C31.4823 29.197 32.5822 28.597 33.0821 27.6408H33.1196V29.1032H34.8695V23.0412C34.8695 21.2851 33.4634 20.1477 31.301 20.1477C29.295 20.1477 27.8076 21.2976 27.7513 22.8725H29.4574C29.6012 22.1225 30.2949 21.6288 31.2448 21.6288C32.401 21.6288 33.0509 22.1663 33.0509 23.16V23.8349L30.6886 23.9786C28.495 24.1099 27.3076 25.0098 27.3076 26.5722C27.3139 28.147 28.5388 29.197 30.2949 29.197ZM30.8073 27.7533C29.8012 27.7533 29.1575 27.2659 29.1575 26.5284C29.1575 25.7597 29.7762 25.316 30.9573 25.2473L33.0572 25.116V25.8035C33.0572 26.9409 32.0885 27.7533 30.8073 27.7533ZM37.2131 32.4154C39.0567 32.4154 39.9253 31.7093 40.6815 29.5782L44 20.2664H42.0752L39.8503 27.4596H39.8128L37.588 20.2664H35.6132L38.8129 29.1345L38.6379 29.6719C38.3505 30.5843 37.8818 30.9406 37.0443 30.9406C36.8943 30.9406 36.6069 30.9218 36.4881 30.9093V32.3717C36.6006 32.3967 37.0693 32.4154 37.2131 32.4154Z" fill="black"/>
</svg>
