<svg width="48" height="48" viewBox="0 0 48 48" fill="none" xmlns="http://www.w3.org/2000/svg">
<path d="M12.551 37.9054V36.0513C12.551 35.3406 12.1184 34.8771 11.3768 34.8771C11.006 34.8771 10.6042 35.0007 10.3261 35.4024C10.1098 35.0625 9.8008 34.8771 9.33728 34.8771C9.02827 34.8771 8.71926 34.9698 8.47205 35.3097V34.9389H7.82312V37.9054H8.47205V36.2677C8.47205 35.7423 8.75016 35.4951 9.18278 35.4951C9.61539 35.4951 9.8317 35.7732 9.8317 36.2677V37.9054H10.4806V36.2677C10.4806 35.7423 10.7896 35.4951 11.1914 35.4951C11.624 35.4951 11.8403 35.7732 11.8403 36.2677V37.9054H12.551ZM22.1613 34.9389H21.1107V34.0428H20.4617V34.9389H19.8746V35.526H20.4617V36.8857C20.4617 37.5655 20.7399 37.9672 21.4815 37.9672C21.7596 37.9672 22.0686 37.8745 22.2849 37.7509L22.0995 37.1947C21.9141 37.3183 21.6978 37.3492 21.5433 37.3492C21.2343 37.3492 21.1107 37.1638 21.1107 36.8548V35.526H22.1613V34.9389ZM27.6617 34.8771C27.2909 34.8771 27.0437 35.0625 26.8892 35.3097V34.9389H26.2403V37.9054H26.8892V36.2368C26.8892 35.7423 27.1055 35.4642 27.5072 35.4642C27.6308 35.4642 27.7854 35.4951 27.909 35.526L28.0944 34.908C27.9708 34.8771 27.7854 34.8771 27.6617 34.8771ZM19.3493 35.1861C19.0403 34.9698 18.6077 34.8771 18.1442 34.8771C17.4025 34.8771 16.9081 35.2479 16.9081 35.835C16.9081 36.3295 17.2789 36.6076 17.9278 36.7003L18.2369 36.7312C18.5768 36.793 18.7622 36.8857 18.7622 37.0402C18.7622 37.2565 18.515 37.411 18.0823 37.411C17.6497 37.411 17.3098 37.2565 17.0935 37.102L16.7845 37.5964C17.1244 37.8436 17.5879 37.9672 18.0514 37.9672C18.9167 37.9672 19.4111 37.5655 19.4111 37.0093C19.4111 36.484 19.0094 36.2058 18.3914 36.1131L18.0823 36.0822C17.8042 36.0513 17.5879 35.9895 17.5879 35.8041C17.5879 35.5878 17.8042 35.4642 18.1442 35.4642C18.515 35.4642 18.8858 35.6187 19.0712 35.7114L19.3493 35.1861ZM36.5922 34.8771C36.2214 34.8771 35.9742 35.0625 35.8197 35.3097V34.9389H35.1708V37.9054H35.8197V36.2368C35.8197 35.7423 36.036 35.4642 36.4377 35.4642C36.5613 35.4642 36.7158 35.4951 36.8394 35.526L37.0248 34.908C36.9012 34.8771 36.7158 34.8771 36.5922 34.8771ZM28.3107 36.4222C28.3107 37.3183 28.9287 37.9672 29.8866 37.9672C30.3193 37.9672 30.6283 37.8745 30.9373 37.6273L30.6283 37.102C30.3811 37.2874 30.1339 37.3801 29.8557 37.3801C29.3304 37.3801 28.9596 37.0093 28.9596 36.4222C28.9596 35.8659 29.3304 35.4951 29.8557 35.4642C30.1339 35.4642 30.3811 35.5569 30.6283 35.7423L30.9373 35.217C30.6283 34.9698 30.3193 34.8771 29.8866 34.8771C28.9287 34.8771 28.3107 35.526 28.3107 36.4222ZM34.3055 36.4222V34.9389H33.6566V35.3097C33.4403 35.0316 33.1313 34.8771 32.7296 34.8771C31.8952 34.8771 31.2463 35.526 31.2463 36.4222C31.2463 37.3183 31.8952 37.9672 32.7296 37.9672C33.1622 37.9672 33.4712 37.8127 33.6566 37.5346V37.9054H34.3055V36.4222ZM31.9261 36.4222C31.9261 35.8968 32.266 35.4642 32.8223 35.4642C33.3476 35.4642 33.7184 35.8659 33.7184 36.4222C33.7184 36.9475 33.3476 37.3801 32.8223 37.3801C32.266 37.3492 31.9261 36.9475 31.9261 36.4222ZM24.1699 34.8771C23.3047 34.8771 22.6866 35.4951 22.6866 36.4222C22.6866 37.3492 23.3047 37.9672 24.2008 37.9672C24.6334 37.9672 25.066 37.8436 25.406 37.5655L25.0969 37.102C24.8497 37.2874 24.5407 37.411 24.2317 37.411C23.83 37.411 23.4283 37.2256 23.3356 36.7003H25.5296V36.4531C25.5605 35.4951 25.0042 34.8771 24.1699 34.8771ZM24.1699 35.4333C24.5716 35.4333 24.8497 35.6805 24.9115 36.144H23.3665C23.4283 35.7423 23.7064 35.4333 24.1699 35.4333ZM40.2695 36.4222V33.7646H39.6205V35.3097C39.4042 35.0316 39.0952 34.8771 38.6935 34.8771C37.8592 34.8771 37.2102 35.526 37.2102 36.4222C37.2102 37.3183 37.8592 37.9672 38.6935 37.9672C39.1261 37.9672 39.4351 37.8127 39.6205 37.5346V37.9054H40.2695V36.4222ZM37.8901 36.4222C37.8901 35.8968 38.23 35.4642 38.7862 35.4642C39.3115 35.4642 39.6824 35.8659 39.6824 36.4222C39.6824 36.9475 39.3115 37.3801 38.7862 37.3801C38.23 37.3492 37.8901 36.9475 37.8901 36.4222ZM16.1974 36.4222V34.9389H15.5484V35.3097C15.3321 35.0316 15.0231 34.8771 14.6214 34.8771C13.7871 34.8771 13.1381 35.526 13.1381 36.4222C13.1381 37.3183 13.7871 37.9672 14.6214 37.9672C15.054 37.9672 15.363 37.8127 15.5484 37.5346V37.9054H16.1974V36.4222ZM13.7871 36.4222C13.7871 35.8968 14.127 35.4642 14.6832 35.4642C15.2085 35.4642 15.5793 35.8659 15.5793 36.4222C15.5793 36.9475 15.2085 37.3801 14.6832 37.3801C14.127 37.3492 13.7871 36.9475 13.7871 36.4222Z" fill="black"/>
<path d="M28.8667 12.4121H19.1328V29.9022H28.8667V12.4121Z" fill="#FF5F00"/>
<path d="M19.7511 21.1567C19.7511 17.603 21.4197 14.4511 23.9846 12.4116C22.0996 10.9284 19.7202 10.0322 17.1245 10.0322C10.9751 10.0322 6 15.0073 6 21.1567C6 27.306 10.9751 32.2812 17.1245 32.2812C19.7202 32.2812 22.0996 31.385 23.9846 29.9018C21.4197 27.8932 19.7511 24.7103 19.7511 21.1567Z" fill="#EB001B"/>
<path d="M42.0001 21.1567C42.0001 27.306 37.0249 32.2812 30.8756 32.2812C28.2799 32.2812 25.9005 31.385 24.0155 29.9018C26.6112 27.8623 28.249 24.7103 28.249 21.1567C28.249 17.603 26.5803 14.4511 24.0155 12.4116C25.9005 10.9284 28.2799 10.0322 30.8756 10.0322C37.0249 10.0322 42.0001 15.0382 42.0001 21.1567Z" fill="#F79E1B"/>
</svg>
