<svg width="48" height="48" viewBox="0 0 48 48" fill="none" xmlns="http://www.w3.org/2000/svg">
<path d="M17.412 40.7797L18.0359 36.8167L16.6461 36.7845H10.0096L14.6216 7.54139C14.6359 7.45311 14.6825 7.3708 14.7505 7.31234C14.8185 7.25389 14.9056 7.22168 14.9962 7.22168H26.1862C29.9011 7.22168 32.4648 7.99472 33.8033 9.52052C34.4308 10.2363 34.8304 10.9843 35.0237 11.8074C35.2265 12.6711 35.23 13.703 35.032 14.9616L35.0177 15.0535V15.8599L35.6452 16.2154C36.1737 16.4958 36.5936 16.8167 36.9157 17.1841C37.4525 17.7961 37.7997 18.5739 37.9464 19.4961C38.0979 20.4445 38.0478 21.573 37.7997 22.8507C37.5134 24.3204 37.0505 25.6004 36.4254 26.6479C35.8504 27.613 35.1179 28.4134 34.2482 29.0338C33.4179 29.6231 32.4314 30.0705 31.3159 30.3568C30.2351 30.6383 29.0028 30.7803 27.6512 30.7803H26.7803C26.1576 30.7803 25.5527 31.0046 25.0779 31.4066C24.6019 31.817 24.287 32.3777 24.1904 32.9908L24.1248 33.3475L23.0225 40.3323L22.9724 40.5888C22.9592 40.6699 22.9366 40.7105 22.9032 40.7379C22.8733 40.763 22.8304 40.7797 22.7886 40.7797H17.412Z" fill="#253B80"/>
<path d="M36.2399 15.1465C36.2065 15.36 36.1683 15.5783 36.1254 15.8026C34.6497 23.3791 29.6011 25.9965 23.1531 25.9965H19.8701C19.0815 25.9965 18.417 26.5691 18.2942 27.3469L16.6133 38.0072L16.1373 41.029C16.0574 41.5396 16.451 42 16.9664 42H22.7892C23.4788 42 24.0645 41.499 24.1731 40.819L24.2303 40.5232L25.3267 33.5658L25.3971 33.1841C25.5044 32.5017 26.0914 32.0006 26.7809 32.0006H27.6518C33.2933 32.0006 37.7096 29.7102 39.0004 23.0821C39.5396 20.3132 39.2605 18.0012 37.8337 16.3752C37.4018 15.8849 36.8662 15.4781 36.2399 15.1465Z" fill="#179BD7"/>
<path d="M34.696 14.5307C34.4705 14.465 34.2379 14.4054 33.9993 14.3517C33.7595 14.2992 33.5138 14.2527 33.2608 14.2121C32.3757 14.069 31.4058 14.001 30.3667 14.001H21.5961C21.3801 14.001 21.1749 14.0499 20.9912 14.1382C20.5868 14.3326 20.2862 14.7156 20.2134 15.1844L18.3476 27.0019L18.2939 27.3466C18.4168 26.5688 19.0813 25.9962 19.8698 25.9962H23.1529C29.6008 25.9962 34.6494 23.3777 36.1251 15.8023C36.1693 15.5781 36.2063 15.3598 36.2397 15.1462C35.8663 14.9482 35.4619 14.7788 35.0264 14.6344C34.9191 14.5987 34.8081 14.5641 34.696 14.5307Z" fill="#222D65"/>
<path d="M20.9911 14.1396C21.176 14.0513 21.38 14.0024 21.5959 14.0024H30.3666C31.4056 14.0024 32.3755 14.0704 33.2607 14.2135C33.5136 14.2541 33.7593 14.3006 33.9991 14.3531C34.2377 14.4068 34.4703 14.4664 34.6958 14.5321C34.8079 14.5655 34.9189 14.6001 35.0275 14.6347C35.4629 14.779 35.8673 14.9496 36.2407 15.1464C36.6797 12.3466 36.2371 10.4402 34.7232 8.71399C33.0543 6.8136 30.0421 6 26.1876 6H14.9976C14.2103 6 13.5386 6.57262 13.417 7.35163L8.75606 36.8953C8.6642 37.4799 9.11514 38.0072 9.70446 38.0072H16.6129L18.3475 27.0021L20.2133 15.1846C20.286 14.7158 20.5867 14.3328 20.9911 14.1396Z" fill="#253B80"/>
</svg>
