<svg width="1728" height="2013" viewBox="0 0 1728 2013" fill="none" xmlns="http://www.w3.org/2000/svg">
<g opacity="0.2">
<path opacity="0.1" d="M736.841 1017.43C1230.22 1017.43 1630.18 500.204 1630.18 -137.824C1630.18 -775.852 1230.22 -1293.08 736.841 -1293.08C243.461 -1293.08 -156.502 -775.852 -156.502 -137.824C-156.502 500.204 243.461 1017.43 736.841 1017.43Z" stroke="white" stroke-width="3.90418"/>
<path opacity="0.1" d="M977.663 732.504C1471.04 732.504 1871.01 215.28 1871.01 -422.748C1871.01 -1060.78 1471.04 -1578 977.663 -1578C484.283 -1578 84.3193 -1060.78 84.3193 -422.748C84.3193 215.28 484.283 732.504 977.663 732.504Z" stroke="white" stroke-width="3.90418"/>
<path opacity="0.1" d="M440.085 1209.3C933.465 1209.3 1333.43 692.08 1333.43 54.0519C1333.43 -583.976 933.465 -1101.2 440.085 -1101.2C-53.2946 -1101.2 -453.258 -583.976 -453.258 54.0519C-453.258 692.08 -53.2946 1209.3 440.085 1209.3Z" stroke="white" stroke-width="3.90418"/>
<path opacity="0.1" d="M206.72 1406.77C729.537 1406.77 1153.36 858.685 1153.36 182.59C1153.36 -493.504 729.537 -1041.59 206.72 -1041.59C-316.096 -1041.59 -739.923 -493.504 -739.923 182.59C-739.923 858.685 -316.096 1406.77 206.72 1406.77Z" stroke="white" stroke-width="3.90418"/>
<path opacity="0.1" d="M989.441 384.089C989.441 1149.33 528.033 1769.5 -40.9912 1769.5C-610.009 1769.5 -1071.42 1149.33 -1071.42 384.089C-1071.42 -381.148 -610.009 -1001.32 -40.9912 -1001.32C528.033 -1001.32 989.441 -381.148 989.441 384.089Z" stroke="white" stroke-width="3.90418"/>
<path opacity="0.1" d="M1075.19 419.918C1075.19 1298.09 515.54 2010.07 -174.904 2010.07C-865.343 2010.07 -1425 1298.09 -1425 419.918C-1425 -458.26 -865.343 -1170.23 -174.904 -1170.23C515.54 -1170.23 1075.19 -458.26 1075.19 419.918Z" stroke="white" stroke-width="3.90418"/>
</g>
</svg>
