<svg width="16" height="16" viewBox="0 0 16 16" fill="none" xmlns="http://www.w3.org/2000/svg">
<path fill-rule="evenodd" clip-rule="evenodd" d="M2.14689 2.14592C2.10033 2.19236 2.06339 2.24754 2.03818 2.30828C2.01297 2.36903 2 2.43415 2 2.49992C2 2.56568 2.01297 2.63081 2.03818 2.69155C2.06339 2.7523 2.10033 2.80747 2.14689 2.85392L13.1469 13.8539C13.2408 13.9478 13.3681 14.0005 13.5009 14.0005C13.6337 14.0005 13.761 13.9478 13.8549 13.8539C13.9488 13.76 14.0015 13.6327 14.0015 13.4999C14.0015 13.3671 13.9488 13.2398 13.8549 13.1459L2.85489 2.14592C2.80845 2.09935 2.75327 2.06241 2.69253 2.0372C2.63178 2.012 2.56666 1.99902 2.50089 1.99902C2.43513 1.99902 2.37001 2.012 2.30926 2.0372C2.24851 2.06241 2.19334 2.09935 2.14689 2.14592Z" fill="white"/>
<path fill-rule="evenodd" clip-rule="evenodd" d="M13.8532 2.14592C13.8997 2.19236 13.9367 2.24754 13.9619 2.30828C13.9871 2.36903 14.0001 2.43415 14.0001 2.49992C14.0001 2.56568 13.9871 2.63081 13.9619 2.69155C13.9367 2.7523 13.8997 2.80747 13.8532 2.85392L2.85317 13.8539C2.75928 13.9478 2.63194 14.0005 2.49917 14.0005C2.36639 14.0005 2.23905 13.9478 2.14517 13.8539C2.05128 13.76 1.99854 13.6327 1.99854 13.4999C1.99854 13.3671 2.05128 13.2398 2.14517 13.1459L13.1452 2.14592C13.1916 2.09935 13.2468 2.06241 13.3075 2.0372C13.3683 2.012 13.4334 1.99902 13.4992 1.99902C13.5649 1.99902 13.6301 2.012 13.6908 2.0372C13.7515 2.06241 13.8067 2.09935 13.8532 2.14592Z" fill="white"/>
</svg>
