<svg width="1728" height="601" viewBox="0 0 1728 601" fill="none" xmlns="http://www.w3.org/2000/svg">
<path opacity="0.1" d="M1406.09 84.179C1899.47 84.179 2299.43 -248.014 2299.43 -657.794C2299.43 -1067.57 1899.47 -1399.77 1406.09 -1399.77C912.706 -1399.77 512.742 -1067.57 512.742 -657.794C512.742 -248.014 912.706 84.179 1406.09 84.179Z" stroke="white" stroke-width="3.90418"/>
<path opacity="0.1" d="M1172.72 211.002C1695.54 211.002 2119.36 -141.01 2119.36 -575.238C2119.36 -1009.47 1695.54 -1361.48 1172.72 -1361.48C649.905 -1361.48 226.078 -1009.47 226.078 -575.238C226.078 -141.01 649.905 211.002 1172.72 211.002Z" stroke="white" stroke-width="3.90418"/>
<path opacity="0.1" d="M1955.44 -445.824C1955.44 45.6574 1494.03 443.974 925.009 443.974C355.991 443.974 -105.418 45.6574 -105.418 -445.824C-105.418 -937.305 355.991 -1335.62 925.009 -1335.62C1494.03 -1335.62 1955.44 -937.305 1955.44 -445.824Z" stroke="white" stroke-width="3.90418"/>
<path opacity="0.1" d="M2041.19 -422.812C2041.19 141.206 1481.54 598.478 791.096 598.478C100.657 598.478 -459 141.206 -459 -422.812C-459 -986.831 100.657 -1444.1 791.096 -1444.1C1481.54 -1444.1 2041.19 -986.831 2041.19 -422.812Z" stroke="white" stroke-width="3.90418"/>
</svg>
