<svg width="1728" height="919" viewBox="0 0 1728 919" fill="none" xmlns="http://www.w3.org/2000/svg">
<g opacity="0.2">
<path opacity="0.1" d="M1924.22 326.056C2417.6 326.056 2817.56 -166.003 2817.56 -772.988C2817.56 -1379.97 2417.6 -1872.03 1924.22 -1872.03C1430.84 -1872.03 1030.87 -1379.97 1030.87 -772.988C1030.87 -166.003 1430.84 326.056 1924.22 326.056Z" stroke="white" stroke-width="3.90418"/>
<path opacity="0.1" d="M2165.04 54.9944C2658.42 54.9944 3058.38 -437.064 3058.38 -1044.05C3058.38 -1651.03 2658.42 -2143.09 2165.04 -2143.09C1671.66 -2143.09 1271.69 -1651.03 1271.69 -1044.05C1271.69 -437.064 1671.66 54.9944 2165.04 54.9944Z" stroke="white" stroke-width="3.90418"/>
<path opacity="0.1" d="M1627.46 508.596C2120.84 508.596 2520.8 16.5374 2520.8 -590.448C2520.8 -1197.43 2120.84 -1689.49 1627.46 -1689.49C1134.08 -1689.49 734.116 -1197.43 734.116 -590.448C734.116 16.5374 1134.08 508.596 1627.46 508.596Z" stroke="white" stroke-width="3.90418"/>
<path opacity="0.1" d="M1394.09 696.453C1916.91 696.453 2340.74 175.037 2340.74 -468.163C2340.74 -1111.36 1916.91 -1632.78 1394.09 -1632.78C871.278 -1632.78 447.451 -1111.36 447.451 -468.163C447.451 175.037 871.278 696.453 1394.09 696.453Z" stroke="white" stroke-width="3.90418"/>
<path opacity="0.1" d="M2176.81 -276.469C2176.81 451.536 1715.41 1041.54 1146.38 1041.54C577.365 1041.54 115.956 451.536 115.956 -276.469C115.956 -1004.47 577.365 -1594.48 1146.38 -1594.48C1715.41 -1594.48 2176.81 -1004.47 2176.81 -276.469Z" stroke="white" stroke-width="3.90418"/>
<path opacity="0.1" d="M2262.56 -242.382C2262.56 593.067 1702.91 1270.4 1012.47 1270.4C322.031 1270.4 -237.626 593.067 -237.626 -242.382C-237.626 -1077.83 322.031 -1755.16 1012.47 -1755.16C1702.91 -1755.16 2262.56 -1077.83 2262.56 -242.382Z" stroke="white" stroke-width="3.90418"/>
</g>
</svg>
