<svg width="1728" height="747" viewBox="0 0 1728 747" fill="none" xmlns="http://www.w3.org/2000/svg">
<path opacity="0.1" d="M1841.62 265.031C2296.56 265.031 2665.36 -134.934 2665.36 -628.315C2665.36 -1121.7 2296.56 -1521.66 1841.62 -1521.66C1386.67 -1521.66 1017.87 -1121.7 1017.87 -628.315C1017.87 -134.934 1386.67 265.031 1841.62 265.031Z" stroke="white" stroke-width="3.90418"/>
<path opacity="0.1" d="M2063.68 44.7017C2518.62 44.7017 2887.42 -355.263 2887.42 -848.645C2887.42 -1342.03 2518.62 -1741.99 2063.68 -1741.99C1608.73 -1741.99 1239.93 -1342.03 1239.93 -848.645C1239.93 -355.263 1608.73 44.7017 2063.68 44.7017Z" stroke="white" stroke-width="3.90418"/>
<path opacity="0.1" d="M1567.98 413.407C2022.92 413.407 2391.72 13.4423 2391.72 -479.94C2391.72 -973.322 2022.92 -1373.29 1567.98 -1373.29C1113.04 -1373.29 744.235 -973.322 744.235 -479.94C744.235 13.4423 1113.04 413.407 1567.98 413.407Z" stroke="white" stroke-width="3.90418"/>
<path opacity="0.1" d="M1352.8 566.105C1834.88 566.105 2225.69 142.277 2225.69 -380.542C2225.69 -903.36 1834.88 -1327.19 1352.8 -1327.19C870.711 -1327.19 479.904 -903.36 479.904 -380.542C479.904 142.277 870.711 566.105 1352.8 566.105Z" stroke="white" stroke-width="3.90418"/>
<path opacity="0.1" d="M2074.54 -224.725C2074.54 367.027 1649.08 846.606 1124.38 846.606C599.696 846.606 174.235 367.027 174.235 -224.725C174.235 -816.476 599.696 -1296.05 1124.38 -1296.05C1649.08 -1296.05 2074.54 -816.476 2074.54 -224.725Z" stroke="white" stroke-width="3.90418"/>
<path opacity="0.1" d="M2153.6 -197.018C2153.6 482.069 1637.56 1032.63 1000.9 1032.63C364.255 1032.63 -151.8 482.069 -151.8 -197.018C-151.8 -876.106 364.255 -1426.67 1000.9 -1426.67C1637.56 -1426.67 2153.6 -876.106 2153.6 -197.018Z" stroke="white" stroke-width="3.90418"/>
</svg>
