<svg width="1721" height="919" viewBox="0 0 1721 919" fill="none" xmlns="http://www.w3.org/2000/svg">
<g clip-path="url(#clip0_122_48)">
<mask id="mask0_122_48" style="mask-type:alpha" maskUnits="userSpaceOnUse" x="-229" y="-302" width="1874" height="919">
<path d="M1645 -302H-229V617H1645V-302Z" fill="#003282"/>
</mask>
<g mask="url(#mask0_122_48)">
<g opacity="0.2">
<path opacity="0.1" d="M1844.22 326.056C2337.6 326.056 2737.56 -166.003 2737.56 -772.988C2737.56 -1379.97 2337.6 -1872.03 1844.22 -1872.03C1350.84 -1872.03 950.872 -1379.97 950.872 -772.988C950.872 -166.003 1350.84 326.056 1844.22 326.056Z" stroke="white" stroke-width="3.90418"/>
<path opacity="0.1" d="M2085.04 54.9944C2578.42 54.9944 2978.38 -437.064 2978.38 -1044.05C2978.38 -1651.03 2578.42 -2143.09 2085.04 -2143.09C1591.66 -2143.09 1191.69 -1651.03 1191.69 -1044.05C1191.69 -437.064 1591.66 54.9944 2085.04 54.9944Z" stroke="white" stroke-width="3.90418"/>
<path opacity="0.1" d="M1547.46 508.596C2040.84 508.596 2440.8 16.5374 2440.8 -590.448C2440.8 -1197.43 2040.84 -1689.49 1547.46 -1689.49C1054.08 -1689.49 654.116 -1197.43 654.116 -590.448C654.116 16.5374 1054.08 508.596 1547.46 508.596Z" stroke="white" stroke-width="3.90418"/>
<path opacity="0.1" d="M1314.09 696.453C1836.91 696.453 2260.74 175.037 2260.74 -468.163C2260.74 -1111.36 1836.91 -1632.78 1314.09 -1632.78C791.278 -1632.78 367.451 -1111.36 367.451 -468.163C367.451 175.037 791.278 696.453 1314.09 696.453Z" stroke="white" stroke-width="3.90418"/>
<path opacity="0.1" d="M2096.82 -276.469C2096.82 451.536 1635.41 1041.54 1066.38 1041.54C497.365 1041.54 35.9565 451.536 35.9565 -276.469C35.9565 -1004.47 497.365 -1594.48 1066.38 -1594.48C1635.41 -1594.48 2096.82 -1004.47 2096.82 -276.469Z" stroke="white" stroke-width="3.90418"/>
<path opacity="0.1" d="M2182.56 -242.382C2182.56 593.067 1622.91 1270.4 932.47 1270.4C242.031 1270.4 -317.626 593.067 -317.626 -242.382C-317.626 -1077.83 242.031 -1755.16 932.47 -1755.16C1622.91 -1755.16 2182.56 -1077.83 2182.56 -242.382Z" stroke="white" stroke-width="3.90418"/>
</g>
</g>
</g>
<defs>
<clipPath id="clip0_122_48">
<rect width="1874" height="919" fill="white" transform="translate(-153)"/>
</clipPath>
</defs>
</svg>
