<svg id="Layer_1" height="512" viewBox="0 0 66 66" width="512" xmlns="http://www.w3.org/2000/svg"><g><g><circle cx="33" cy="33" fill="#e5e5e5" r="32"/></g><g><g><circle cx="47.1" cy="42.2" fill="#fa4968" r="6.6"/><path d="m47.1 49.3c-3.9 0-7.1-3.2-7.1-7.1s3.2-7.1 7.1-7.1 7.1 3.2 7.1 7.1-3.2 7.1-7.1 7.1zm0-13.2c-3.4 0-6.1 2.7-6.1 6.1s2.7 6.1 6.1 6.1 6.1-2.7 6.1-6.1-2.7-6.1-6.1-6.1z" fill="#682f2a"/></g><g><circle cx="23.2" cy="18.4" fill="#abb734" r="6.6"/><path d="m23.2 25.5c-3.9 0-7.1-3.2-7.1-7.1s3.2-7.1 7.1-7.1 7.1 3.2 7.1 7.1-3.2 7.1-7.1 7.1zm0-13.2c-3.4 0-6.1 2.7-6.1 6.1s2.7 6.1 6.1 6.1 6.1-2.7 6.1-6.1-2.7-6.1-6.1-6.1z" fill="#682f2a"/></g><g><g><path d="m27.8 45h-7.8c-.9 0-1.6-.7-1.6-1.6v-4.4c0-.9.7-1.6 1.6-1.6h7.8c.9 0 1.6.7 1.6 1.6v4.5c-.1.8-.8 1.5-1.6 1.5z" fill="#fa4968"/><path d="m27.8 45.5h-7.8c-1.2 0-2.1-.9-2.1-2.1v-4.4c0-1.2.9-2.1 2.1-2.1h7.8c1.2 0 2.1.9 2.1 2.1v4.5c-.1 1.1-1.1 2-2.1 2zm-7.8-7.6c-.6 0-1.1.5-1.1 1.1v4.4c0 .6.5 1.1 1.1 1.1h7.8c.5 0 1-.5 1.1-1.1v-4.4c0-.6-.5-1.1-1.1-1.1z" fill="#682f2a"/></g><g><path d="m29.3 38.9v4.8c0 .8-.6 1.4-1.4 1.4h-8.1c-.8 0-1.4-.6-1.4-1.4v-4.8c0-.8.6-1.4 1.4-1.4h8.1c.8-.1 1.4.6 1.4 1.4z" fill="#9b9b1b"/><path d="m27.9 45.6h-8.1c-1.1 0-1.9-.8-1.9-1.9v-4.8c0-1.1.8-1.9 1.9-1.9h8.1.2c1 0 1.7.9 1.7 1.9v4.8c0 1.1-.8 1.9-1.9 1.9zm-8.1-7.6c-.5 0-.9.4-.9.9v4.8c0 .5.4.9.9.9h8.1c.5 0 .9-.4.9-.9v-4.8c0-.4-.3-.9-.8-.9 0 0-.1 0-.2 0z" fill="#682f2a"/></g><g><path d="m29.3 38.9v.7c0 .8-.6 1.4-1.4 1.4h-8.1c-.8 0-1.4-.6-1.4-1.4v-.7c0-.8.6-1.4 1.4-1.4h8.1c.8-.1 1.4.6 1.4 1.4z" fill="#c6cc4a"/><path d="m27.9 41.5h-8.1c-1.1 0-1.9-.8-1.9-1.9v-.7c0-1.1.8-1.9 1.9-1.9h8.1.2c1 0 1.7.9 1.7 1.9v.7c0 1.1-.8 1.9-1.9 1.9zm-8.1-3.5c-.5 0-.9.4-.9.9v.7c0 .5.4.9.9.9h8.1c.5 0 .9-.4.9-.9v-.7c0-.4-.3-.9-.8-.9 0 0-.1 0-.2 0z" fill="#682f2a"/></g><g><path d="m25.7 37.9h-3.8c-.3 0-.5-.2-.5-.5v-1.4c0-.7.5-1.2 1.2-1.2h2.4c.7 0 1.2.5 1.2 1.2v1.4c0 .3-.2.5-.5.5zm-3.3-1h2.8v-.9c0-.1-.1-.2-.2-.2h-2.4c-.1 0-.2.1-.2.2z" fill="#682f2a"/></g><g><path d="m24.3 42.2h-1c-.3 0-.5-.2-.5-.5v-1.3c0-.3.2-.5.5-.5h1c.3 0 .5.2.5.5v1.3c0 .3-.2.5-.5.5z" fill="#fff"/><path d="m24.3 42.7h-1c-.6 0-1-.4-1-1v-1.3c0-.6.4-1 1-1h1c.6 0 1 .4 1 1v1.3c0 .6-.4 1-1 1zm-1-2.3v1.3h1v-1.3z" fill="#682f2a"/></g></g><g><g><path d="m35.2 40.9c0-1.4 1-2.6 2.5-3.3-.3-1.6-.9-3-1.8-4.3-1.6.6-3.1.4-4-.5-.9-1-1.1-2.5-.5-4.1-1.3-.8-2.7-1.4-4.3-1.8-.7 1.5-1.9 2.5-3.2 2.5s-2.5-1-3.2-2.5c-1.5.4-3 1-4.3 1.8.6 1.6.4 3.1-.5 4.1s-2.5 1.1-4.1.5c-.8 1.3-1.4 2.8-1.8 4.3 1.5.7 2.5 1.9 2.5 3.3s-1 2.6-2.5 3.3c.4 1.5 1 3 1.8 4.3 1.6-.6 3.1-.4 4 .5.9 1 1.1 2.5.5 4.1 1.3.8 2.7 1.4 4.3 1.8.7-1.5 1.9-2.5 3.2-2.5s2.5 1 3.2 2.5c1.5-.4 3-1 4.3-1.8-.5-1.6-.4-3.1.5-4.1s2.5-1.1 4-.5c.8-1.3 1.4-2.8 1.8-4.3-1.4-.7-2.4-1.9-2.4-3.3zm-11.4 8.4c-4.6 0-8.3-3.8-8.3-8.4s3.7-8.4 8.3-8.4 8.3 3.8 8.3 8.4c0 4.7-3.7 8.4-8.3 8.4z" fill="#559aff"/><path d="m27 55.4c-.2 0-.4-.1-.4-.3-.6-1.4-1.7-2.2-2.8-2.2s-2.1.8-2.8 2.2c-.1.2-.3.3-.6.3-1.6-.4-3.1-1-4.4-1.9-.2-.1-.3-.4-.2-.6.5-1.4.4-2.7-.4-3.6-.7-.7-2.1-.9-3.5-.4-.2.1-.5 0-.6-.2-.8-1.3-1.4-2.8-1.9-4.4-.1-.2.1-.5.3-.6 1.4-.6 2.2-1.7 2.2-2.9 0-1.1-.8-2.2-2.2-2.9-.2-.1-.3-.3-.3-.6.4-1.6 1.1-3.2 1.9-4.4.1-.2.4-.3.6-.2.6.2 1.2.3 1.7.3s1.3-.1 1.8-.7c.8-.9.9-2.2.4-3.6-.1-.2 0-.5.2-.6 1.3-.8 2.8-1.4 4.4-1.9.2-.1.5.1.6.3.6 1.4 1.7 2.2 2.8 2.2s2.1-.8 2.8-2.2c.1-.2.3-.3.6-.3 1.6.4 3.1 1 4.4 1.9.2.1.3.4.2.6-.5 1.4-.4 2.7.4 3.6.7.7 2.1.9 3.5.4.2-.1.5 0 .6.2 1 1.4 1.6 2.9 1.9 4.5 0 .2-.1.4-.3.5-1.4.6-2.2 1.7-2.2 2.9 0 1.1.8 2.2 2.1 2.9.2.1.3.3.3.6-.4 1.6-1.1 3.2-1.9 4.4-.1.3-.4.3-.6.3-.5-.2-1.1-.3-1.6-.3s-1.3.1-1.8.7c-.7.8-.9 2.1-.4 3.6.1.2 0 .4-.2.6-1.3.8-2.8 1.4-4.4 1.9-.1-.1-.2-.1-.2-.1zm-10.1-2.5c1.1.6 2.2 1.1 3.4 1.4.8-1.5 2.1-2.4 3.5-2.4 1.3 0 2.6.9 3.5 2.4 1.3-.4 2.4-.9 3.5-1.4-.4-1.7-.2-3.2.7-4.2s2.5-1.3 4.2-.8c.6-1 1.1-2.2 1.4-3.5-1.5-.9-2.3-2.2-2.3-3.5 0-1.4.9-2.7 2.4-3.6-.3-1.2-.7-2.4-1.4-3.4-1.6.5-3.2.2-4.2-.7-1-1.1-1.2-2.6-.7-4.2-1.1-.6-2.2-1.1-3.4-1.4-.8 1.5-2.1 2.4-3.5 2.4-1.3 0-2.6-.9-3.5-2.4-1.3.4-2.4.9-3.4 1.4.5 1.6.2 3.1-.7 4.2-.9 1-2.5 1.3-4.2.8-.6 1-1.1 2.2-1.4 3.4 1.5.8 2.4 2.1 2.4 3.6 0 1.4-.9 2.7-2.4 3.6.4 1.3.9 2.4 1.4 3.4 1.6-.5 3.2-.2 4.1.7.8 1 1.1 2.6.6 4.2zm6.9-3.1c-4.8 0-8.8-4-8.8-8.9s4-8.9 8.8-8.9 8.8 4 8.8 8.9c0 5-3.9 8.9-8.8 8.9zm0-16.8c-4.3 0-7.8 3.5-7.8 7.9s3.5 7.9 7.8 7.9c4.4 0 7.8-3.5 7.8-7.9s-3.5-7.9-7.8-7.9z" fill="#682f2a"/></g></g><g><path d="m52.6 22.4c0 2.5-1 4.7-2.6 6.3s-3.9 2.6-6.4 2.6c-1.9 0-3.7-.6-5.2-1.6l-3.8 1.6 1.6-3.8c-1-1.5-1.6-3.2-1.6-5.2 0-2.5 1-4.7 2.6-6.3s3.9-2.6 6.4-2.6 4.7 1 6.4 2.6c1.6 1.7 2.6 4 2.6 6.4z" fill="#6cd8d5"/><path d="m34.6 31.8c-.1 0-.3 0-.3-.1-.1-.1-.2-.4-.1-.5l1.5-3.6c-1-1.6-1.5-3.4-1.5-5.3 0-2.5 1-4.9 2.7-6.6s4.2-2.7 6.7-2.7 4.8.9 6.7 2.7c1.8 1.9 2.8 4.3 2.8 6.8s-1 4.9-2.7 6.6-4.2 2.7-6.8 2.7c-1.8 0-3.7-.5-5.2-1.5l-3.6 1.5c-.1 0-.1 0-.2 0zm3.8-2.6c.1 0 .2 0 .3.1 1.5 1 3.2 1.5 4.9 1.5 2.3 0 4.5-.9 6.1-2.5s2.5-3.7 2.5-6c0-2.2-.9-4.4-2.5-6.1-1.7-1.6-3.8-2.4-6-2.4-2.3 0-4.5.9-6 2.5-1.6 1.6-2.5 3.7-2.5 6 0 1.8.5 3.4 1.5 4.9.1.1.1.3 0 .5l-1.1 2.7 2.7-1.1c0-.1 0-.1.1-.1z" fill="#682f2a"/></g><g opacity=".3"><path d="m38 19.2-.9-.5c.3-.5.6-1.1 1.2-1.6.9-.9 1.9-1.5 3-1.8.3-.1.5.1.6.3.1.3-.1.5-.3.6-.9.3-1.8.8-2.6 1.6-.4.5-.7 1-1 1.4z" fill="#fff"/></g><g opacity=".3"><path d="m44.3 16h-1.1c-.3 0-.5-.2-.5-.5s.2-.5.5-.5h1.1c.3 0 .5.2.5.5s-.2.5-.5.5z" fill="#fff"/></g><g><g><path d="m40.7 19.5-2.8 2.8 5.9 5.8 11.2-11.1-2.8-2.8-8.4 8.3z" fill="#ffb95c"/><path d="m43.8 28.6c-.1 0-.3 0-.3-.1l-5.9-5.8c-.1-.1-.1-.2-.1-.4 0-.1.1-.3.1-.4l2.8-2.8c.2-.2.5-.2.7 0l2.8 2.7 8.1-8c.2-.2.5-.2.7 0l2.8 2.8c.1.1.1.2.1.4 0 .1-.1.3-.1.3l-11.4 11.2s-.2.1-.3.1zm-5.2-6.3 5.2 5.1 10.5-10.4-2.1-2.1-8.1 8c-.2.2-.5.2-.7 0l-2.8-2.7z" fill="#682f2a"/></g><g opacity=".3"><g><path d="m48.7 20.7c-.1 0-.3 0-.3-.1-.2-.2-.2-.5 0-.7l2.9-2.9c.2-.2.5-.2.7 0s.2.5 0 .7l-3 2.8c0 .1-.2.2-.3.2z" fill="#fff"/></g><g><path d="m46.8 22.6c-.1 0-.3 0-.3-.1-.2-.2-.2-.5 0-.7l.5-.5c.2-.2.5-.2.7 0s.2.5 0 .7l-.5.5c-.1 0-.3.1-.4.1z" fill="#fff"/></g></g></g><g><g><path d="m45.1 38.6-2.3 2.3 4.9 4.9 9.3-9.3-2.3-2.3-7 7z" fill="#abb734"/><path d="m47.7 46.3c-.1 0-.3 0-.3-.1l-4.9-4.9c-.2-.2-.2-.5 0-.7l2.3-2.3c.2-.2.5-.2.7 0l2.3 2.3 6.7-6.7c.2-.2.5-.2.7 0l2.3 2.3c.1.1.1.2.1.3s-.1.3-.1.3l-9.5 9.3c0 .1-.2.2-.3.2zm-4.2-5.4 4.2 4.2 8.6-8.6-1.6-1.6-6.7 6.6c-.2.2-.5.2-.7 0l-2.3-2.3z" fill="#682f2a"/></g><g opacity=".3"><g><path d="m51.8 39.7c-.1 0-.3 0-.3-.1-.2-.2-.2-.5 0-.7l2.4-2.4c.2-.2.5-.2.7 0s.2.5 0 .7l-2.4 2.4c-.1 0-.3.1-.4.1z" fill="#fff"/></g><g><path d="m50.2 41.3c-.1 0-.3 0-.3-.1-.2-.2-.2-.5 0-.7l.4-.4c.2-.2.5-.2.7 0s.2.5 0 .7l-.4.4c-.1 0-.3.1-.4.1z" fill="#fff"/></g></g></g><g><g><path d="m21.4 14.4-2.3 2.4 4.8 4.8 9.4-9.3-2.4-2.3-7 7z" fill="#6cd8d5"/><path d="m23.9 22.1c-.1 0-.3 0-.3-.1l-4.8-4.8c-.2-.2-.2-.5 0-.7l2.3-2.4c.1-.1.2-.2.4-.2.1 0 .3.1.4.2l2.2 2.2 6.6-6.6c.2-.2.5-.2.7 0l2.4 2.3c.1.1.2.2.2.4 0 .1-.1.3-.1.4l-9.7 9.2s-.2.1-.3.1zm-4.1-5.3 4.1 4.1 8.7-8.6-1.7-1.6-6.7 6.7c-.1.1-.2.1-.4.1-.1 0-.3-.1-.4-.2l-2.1-2.2z" fill="#682f2a"/></g><g opacity=".3"><g><path d="m28 15.5c-.1 0-.3 0-.3-.1-.2-.2-.2-.5 0-.7l2.4-2.4c.2-.2.5-.2.7 0s.2.5 0 .7l-2.4 2.4c-.1 0-.3.1-.4.1z" fill="#fff"/></g><g><path d="m26.4 17.1c-.1 0-.3-.1-.4-.2-.2-.2-.1-.5.1-.7l.5-.4c.2-.2.5-.1.7.1s.1.5-.1.7l-.5.4c-.1.1-.2.1-.3.1z" fill="#fff"/></g></g></g></g></g></svg>