<svg id="Layer_5" enable-background="new 0 0 64 64" height="512" viewBox="0 0 64 64" width="512" xmlns="http://www.w3.org/2000/svg"><g><g><g><path d="m16 39.904 3.67 1.84c-.93 2.2-2.16 4.28-3.67 6.16-1.32-1.64-2.42-3.43-3.3-5.32-.13-.28-.26-.56-.37-.85z" fill="#ffeaa7"/></g><g><path d="m19 34.904c.86.08 1.7.25 2.5.49l-.24 1.23c-.36 1.76-.89 3.48-1.59 5.12l-3.67-1.84z" fill="#fcd770"/></g><g><path d="m13 34.904 3 5-3.67 1.83c-.71-1.64-1.23-3.35-1.59-5.11l-.24-1.22c.8-.25 1.63-.42 2.5-.5z" fill="#fcd770"/></g><g><path d="m12.33 41.734c.11.29.24.57.37.85.88 1.89 1.98 3.68 3.3 5.32 1.51-1.88 2.74-3.96 3.67-6.16.7-1.64 1.23-3.36 1.59-5.12l.24-1.23c1.35.42 2.6 1.07 3.7 1.9.57 1.98 2.34 3.46 4.47 3.59v.01l-.67 2.01c-.64.12-1.26.28-1.86.48-2.4.8-4.47 2.25-6.03 4.12-1.5 1.8-2.54 4-2.93 6.4h-10.18-6v-6.95c0-3.13 1.19-6 3.16-8.16 1.43-1.56 3.26-2.75 5.34-3.39l.24 1.22c.36 1.76.88 3.47 1.59 5.11z" fill="#4fc1e9"/></g><g><path d="m43.43 30.944c.17 1.14.73 2.12 1.55 2.83.81.71 1.87 1.13 3.02 1.13 2.3 0 4.24-1.69 4.57-3.96l.1-.72v-.01c3.08.7 5.67 2.56 7.33 5.06 1.27 1.91 2 4.19 2 6.63v7h-6-12.09c-1.62-2.55-4.09-4.53-7.06-5.52-.6-.2-1.21-.36-1.85-.48l-.67-2.01v-.01c2.61-.16 4.67-2.33 4.67-4.98h1c.83 0 1.58-.34 2.12-.88s.88-1.29.88-2.12c0-.86-.36-1.64-.95-2.19l.03-.13c.4-.15.82-.27 1.25-.36z" fill="#5cd6b3"/></g><g><path d="m24 61.904h-6v-5.82c0-.74.06-1.47.18-2.18.39-2.4 1.43-4.6 2.93-6.4 1.56-1.87 3.63-3.32 6.03-4.12l.01.02.85 8.5 4-5 4 5 .85-8.52c2.97.99 5.44 2.97 7.06 5.52 1.33 2.09 2.09 4.56 2.09 7.18v5.82h-6z" fill="#ff826e"/></g><g><path d="m36.85 43.384-.85 8.52-4-5 3-4c.64.12 1.25.28 1.85.48z" fill="#fc6e51"/></g><g><path d="m29 42.904 3 4-4 5-.85-8.5-.01-.02c.6-.2 1.22-.36 1.86-.48z" fill="#fc6e51"/></g><g><path d="m46 26.904-.63 1.88c-.23.69-.82 1.2-1.54 1.33-.17.03-.34.07-.5.11-.43.09-.85.21-1.25.36l.71-2.83c.14-.56.21-1.14.21-1.73 0-.44-.04-.87-.13-1.28h.01c.73 1.05 1.85 1.81 3.14 2.06z" fill="#fcd770"/></g><g><path d="m54 13.904h-4c-2.21 0-4-1.79-4-4 0 2.21-1.79 4-4 4v8c0 .18.01.36.03.53l-.01.01-1.11-1.45c-.8-.8-1.8-1.42-2.91-1.77v-6.32c0-6.08 4.92-11 11-11 3.04 0 5.79 1.23 7.78 3.22s3.22 4.74 3.22 7.78v22.37c-1.66-2.5-4.25-4.36-7.33-5.06-.17-.04-.33-.07-.5-.1-.72-.13-1.31-.64-1.54-1.33l-.63-1.88h1c2.76 0 5-2.24 5-5v-8z" fill="#fcd770"/></g><g><path d="m21 18.904h-4c-2.21 0-4-1.79-4-4 0 2.21-1.79 4-4 4v2h-1c-.87 0-1.65.37-2.19.96-.52-.93-.81-1.98-.81-3.07v-.79c0-1.48.52-2.86 1.41-3.95.89-1.08 2.13-1.86 3.59-2.15l.28-.56c1.05-2.11 3.21-3.44 5.56-3.44h1.83c2.57 0 4.91 1.04 6.6 2.73s2.73 4.03 2.73 6.6c0 .61-.06 1.21-.17 1.79v.01c-1.49.26-2.82 1-3.83 2.05v-2.18z" fill="#656d78"/></g><g><path d="m39 27.904h-4-4c-1.31 0-2.61-.85-3.36-2-1.46 0-2.64 1.18-2.64 2.64v1.36h-1c-.8 0-1.52.31-2.05.81l-.14-.57-.6-2.39c-.14-.56-.21-1.14-.21-1.73 0-1.92.77-3.66 2-4.94 1.01-1.05 2.34-1.79 3.83-2.05.42-.09.85-.13 1.29-.13h7.76c.74 0 1.45.11 2.12.32 1.11.35 2.11.97 2.91 1.77l1.11 1.45c.42.7.71 1.47.85 2.3.09.41.13.84.13 1.28 0 .59-.07 1.17-.21 1.73l-.71 2.83c-.05.01-.09.02-.13.04-.52-.45-1.2-.72-1.95-.72h-1z" fill="#656d78"/></g><g><path d="m18 31.904 1 3-3 5-3-5 1-3z" fill="#f0d0b4"/></g><g><path d="m23 18.904v2.18c-1.23 1.28-2 3.02-2 4.94 0 .59.07 1.17.21 1.73l.6 2.39c-.92 1.08-2.28 1.76-3.81 1.76h-4c-2.76 0-5-2.24-5-5v-6-2c2.21 0 4-1.79 4-4 0 2.21 1.79 4 4 4h4z" fill="#f0d0b4"/></g><g><path d="m9 20.904v6h-.05-.95c-.83 0-1.58-.34-2.12-.88s-.88-1.29-.88-2.12c0-.79.31-1.51.81-2.04.54-.59 1.32-.96 2.19-.96z" fill="#f0d0b4"/></g><g><path d="m52.57 30.944c-.33 2.27-2.27 3.96-4.57 3.96-1.15 0-2.21-.42-3.02-1.13-.82-.71-1.38-1.69-1.55-2.83l-.1-.72c.16-.04.33-.08.5-.11.72-.13 1.31-.64 1.54-1.33l.63-1.88.02-.1c.32.07.64.1.98.1h3l.63 1.88c.23.69.82 1.2 1.54 1.33.17.03.33.06.5.1v.01z" fill="#f0d0b4"/></g><g><path d="m56 13.904v8c0 2.76-2.24 5-5 5h-1-3c-.34 0-.66-.03-.98-.1-1.29-.25-2.41-1.01-3.14-2.06h-.01c-.14-.83-.43-1.6-.85-2.3l.01-.01c-.02-.17-.03-.35-.03-.53v-8c2.21 0 4-1.79 4-4 0 2.21 1.79 4 4 4h4z" fill="#f0d0b4"/></g><g><path d="m43 32.904c0 .83-.34 1.58-.88 2.12s-1.29.88-2.12.88h-1v-6h1c.75 0 1.43.27 1.95.72.03.03.07.06.1.09.59.55.95 1.33.95 2.19z" fill="#f0d0b4"/></g><g><path d="m34 40.904c.11 0 .22 0 .33-.02v.01l.67 2.01-3 4-3-4 .67-2.01v-.01c.11.02.22.02.33.02z" fill="#f0d0b4"/></g><g><path d="m35 27.904h4v2 6c0 2.65-2.06 4.82-4.67 4.98-.11.02-.22.02-.33.02h-4c-.11 0-.22 0-.33-.02-2.13-.13-3.9-1.61-4.47-3.59-.13-.44-.2-.91-.2-1.39v-6-1.36c0-1.46 1.18-2.64 2.64-2.64.75 1.15 2.05 2 3.36 2z" fill="#f0d0b4"/></g><g><path d="m25 29.904v6h-1c-.83 0-1.58-.34-2.12-.88s-.88-1.29-.88-2.12c0-.86.36-1.64.95-2.19.53-.5 1.25-.81 2.05-.81z" fill="#f0d0b4"/></g></g><g><circle cx="29" cy="31.904" r="1"/><circle cx="35" cy="31.904" r="1"/><path d="m33 35.904h-4v2h4c1.654 0 3-1.346 3-3h-2c0 .552-.449 1-1 1z"/><circle cx="46" cy="17.904" r="1"/><circle cx="52" cy="17.904" r="1"/><path d="m46 23.904h4c1.654 0 3-1.346 3-3h-2c0 .551-.449 1-1 1h-4z"/><circle cx="13" cy="22.904" r="1"/><circle cx="19" cy="22.904" r="1"/><path d="m15 27.904h4v-2h-4c-1.654 0-3 1.346-3 3h2c0-.551.449-1 1-1z"/><path d="m63 41.9c0-2.522-.733-4.892-2-6.904v-22.092c0-6.617-5.383-12-12-12s-12 5.383-12 12v5.087c-.368-.051-.741-.087-1.123-.087h-7.754c-.053 0-.103.007-.156.008.015-.225.033-.45.033-.675 0-5.698-4.636-10.333-10.333-10.333h-1.822c-2.752 0-5.227 1.529-6.458 3.991l-.073.145c-3.107.851-5.314 3.703-5.314 6.963v.791c0 1.019.228 2.023.643 2.95-.403.625-.643 1.364-.643 2.16 0 2.206 1.794 4 4 4h.091c.405 2.394 2.227 4.308 4.573 4.845l-.412 1.235c-6.46.908-11.252 6.37-11.252 12.966v7.955h16.051c-.032.389-.051.782-.051 1.179v6.82h30v-6.82c0-2.201-.504-4.297-1.4-6.18h17.4zm-24-28.996c0-5.514 4.486-10 10-10s10 4.486 10 10v19.636c-1.787-1.715-4.07-2.937-6.656-3.407-.359-.065-.655-.321-.77-.668l-.193-.579c3.131-.199 5.619-2.802 5.619-5.982v-12h-2v3h-1c-1.654 0-3-1.346-3-3h-2c0 1.13.391 2.162 1.026 3h-.026c-1.654 0-3-1.346-3-3h-2c0 1.302-.839 2.402-2 2.816v-2.816h-2v9.827c-.602-.49-1.274-.897-2-1.2zm1 18c1.103 0 2 .897 2 2s-.897 2-2 2zm3-9v-7.101c1.226-.25 2.278-.96 3-1.93.912 1.225 2.359 2.031 4 2.031h5v7c0 2.206-1.794 4-4 4h-4c-1.256 0-2.431-.595-3.187-1.593-.165-.766-.436-1.493-.801-2.162-.004-.081-.012-.162-.012-.245zm.657 7.228c-.065.012-.129.031-.194.043l.294-1.178c.078-.312.136-.63.177-.949.265.158.539.299.826.415l-.334 1.001c-.115.347-.411.603-.769.668zm2.666-.035.403-1.21c.092.004.182.017.274.017h2.279l.398 1.193c.296.888.996 1.553 1.863 1.858-.318 1.69-1.807 2.949-3.54 2.949s-3.222-1.26-3.54-2.949c.867-.304 1.567-.97 1.863-1.858zm-10.446-9.193c3.376 0 6.123 2.747 6.123 6.123 0 .501-.062 1-.183 1.485l-.415 1.659c-.438-.165-.907-.267-1.402-.267v-2h-1c-1.458 0-3-1.542-3-3h-2c0 2.233 1.833 4.359 4 4.879v7.121c0 2.206-1.794 4-4 4h-4c-2.206 0-4-1.794-4-4v-7.36c0-.438.17-.85.48-1.16.198-.198.44-.332.701-.408.95 1.145 2.361 1.928 3.819 1.928v-2c-1.458 0-3-1.542-3-3h-2c0 .44.076.875.207 1.296-.42.18-.808.437-1.141.77-.688.688-1.066 1.602-1.066 2.574v.36c-.495 0-.964.102-1.402.267l-.415-1.66c-.121-.483-.183-.983-.183-1.484 0-3.376 2.747-6.123 6.123-6.123zm-7.288 24.119 2.146 2.862-1.984 2.48-.526-5.259c.12-.032.243-.055.364-.083zm3.411 1.215-1.886-2.514.273-.819h3.225l.273.819zm3.411-1.215c.121.028.244.051.364.083l-.526 5.259-1.984-2.48zm-18.132-11.119.627 1.88-1.906 3.177-1.906-3.177.627-1.88zm6.721 2c-1.103 0-2-.897-2-2s.897-2 2-2zm-3.804-.826c-.151-.027-.297-.071-.448-.093l-.411-1.233c.238-.054.471-.126.7-.209-.012.121-.037.238-.037.361 0 .411.08.8.196 1.174zm-5.609 5.415-1.735.868c-.48-1.277-.859-2.592-1.127-3.931l-.059-.297c.268-.059.541-.108.817-.148zm1.413 1.529 2.363 1.181c-.664 1.416-1.45 2.776-2.363 4.046-.913-1.271-1.699-2.63-2.363-4.046zm3.148-.662-1.735-.868 2.097-3.495c.276.04.554.073.825.133l-.06.298c-.267 1.34-.646 2.655-1.127 3.932zm-13.148-22.357c0-2.479 1.765-4.632 4.196-5.119l.479-.096.5-1c.89-1.78 2.679-2.885 4.669-2.885h1.822c4.595 0 8.333 3.738 8.333 8.333 0 .325-.026.651-.064.974-.687.192-1.335.473-1.936.829v-4.136h-2v3h-1c-1.654 0-3-1.346-3-3h-2c0 1.13.391 2.162 1.026 3h-.025c-1.654 0-3-1.346-3-3h-2c0 1.302-.839 2.402-2 2.816v-2.816h-2v5c-.634 0-1.226.162-1.759.425-.153-.495-.241-1.011-.241-1.534zm0 5.901c0-1.103.897-2 2-2v4c-1.103 0-2-.897-2-2zm4 3v-7.101c1.226-.25 2.278-.96 3-1.93.912 1.225 2.359 2.031 4 2.031h5v.801c-1.242 1.427-2 3.286-2 5.322 0 .665.082 1.328.243 1.97l.457 1.827c-.735.679-1.686 1.079-2.699 1.079h-4c-2.206.001-4-1.793-4.001-3.999zm-1 26v-9h-2v9h-4v-5.954c0-4.587 2.741-8.518 6.748-10.208l.016.08c.853 4.264 2.739 8.312 5.456 11.707l.78.976.781-.976c2.716-3.395 4.603-7.443 5.456-11.707l.012-.062c.745.317 1.455.713 2.118 1.19.654 1.796 2.139 3.192 3.991 3.721l-.123.37c-5.489 1.233-9.66 5.525-10.867 10.865h-8.368zm36 8h-4v-8h-2v8h-14v-8h-2v8h-4v-4.82c0-4.959 2.933-9.318 7.284-11.286l.965 9.645 3.751-4.688v7.149h2v-7.149l3.751 4.689.965-9.645c4.35 1.967 7.284 6.327 7.284 11.285zm16-13h-4v-10h-2v10h-10.555c-2.005-2.901-5.055-5.051-8.679-5.865l-.123-.37c2.198-.627 3.88-2.477 4.267-4.766h.09c1.821 0 3.344-1.23 3.826-2.898 1.038 1.161 2.532 1.898 4.174 1.898 2.635 0 4.901-1.877 5.461-4.419 4.444 1.465 7.539 5.623 7.539 10.416z"/><path d="m35 28.904v-2c-1.458 0-3-1.542-3-3h-2c0 2.571 2.43 5 5 5z"/></g></g></svg>