<svg width="128" height="58" viewBox="0 0 128 58" fill="none" xmlns="http://www.w3.org/2000/svg">
<g clip-path="url(#clip0_7_1003716)">
<path d="M34.5023 24.4673C36.1381 26.3798 36.9552 28.9642 36.9537 32.2204V46.7489H28.451V33.3735C28.451 31.9514 28.0897 30.8329 27.3671 30.0181C26.6445 29.2033 25.6759 28.7966 24.4613 28.7982C23.1884 28.7982 22.189 29.2048 21.4634 30.0181C20.7377 30.8314 20.3764 31.9498 20.3795 33.3735V46.7489H11.8813V13.873H20.3841V25.3782C21.1624 24.2296 22.213 23.2916 23.442 22.6478C24.8097 21.9289 26.3365 21.5664 27.8813 21.5939C30.6626 21.5939 32.8695 22.5517 34.5023 24.4673Z" fill="white"/>
<path d="M40.4014 18.2503C39.9587 17.8499 39.6076 17.3588 39.372 16.8104C39.1364 16.262 39.0218 15.6692 39.0361 15.0725C39.0202 14.4661 39.1338 13.8632 39.3692 13.3041C39.6046 12.745 39.9565 12.2425 40.4014 11.8301C41.3131 10.9723 42.5207 10.5426 44.0243 10.541C45.4972 10.541 46.6902 10.9707 47.6034 11.8301C48.0483 12.2425 48.4002 12.745 48.6356 13.3041C48.871 13.8632 48.9846 14.4661 48.9687 15.0725C48.983 15.6692 48.8684 16.262 48.6328 16.8104C48.3972 17.3588 48.0461 17.8499 47.6034 18.2503C46.6933 19.0959 45.5002 19.5187 44.0243 19.5187C42.5207 19.5187 41.3131 19.0959 40.4014 18.2503ZM48.2423 21.8248V46.7469H39.7303V21.8248H48.2423Z" fill="white"/>
<path d="M61.1312 44.0944C61.0982 43.9848 61.0271 43.8906 60.9306 43.8288C60.8342 43.7671 60.7188 43.7418 60.6054 43.7577C60.0243 43.7785 59.4524 43.7462 58.8643 43.7716C58.6702 43.7975 58.473 43.7595 58.3024 43.6634C58.1319 43.5673 57.9972 43.4183 57.9188 43.2388V38.2162C58.0766 37.7684 58.2622 37.3309 58.4746 36.9063C58.9358 36.0853 59.7476 35.7186 60.5293 35.3312C60.7092 35.2413 60.8914 35.156 61.0713 35.0775V29.0655H65.4968V21.8244H61.0713V15.7847H52.527V21.8244H49.5291V29.0655H52.527V37.2753C52.527 43.5786 55.6357 46.7303 61.8531 46.7303H65.5429V46.6196C65.3631 46.6422 65.1821 46.653 65.0009 46.6519C63.2137 46.6611 61.9038 45.7617 61.1312 44.0944ZM65.0102 40.8197C64.6267 40.8382 64.2649 41.0028 63.9991 41.2798C63.7333 41.5568 63.5837 41.925 63.5811 42.3089C63.5784 42.6928 63.7229 43.0631 63.9848 43.3437C64.2468 43.6243 64.6063 43.7939 64.9894 43.8177C65.1789 43.8176 65.3664 43.7792 65.5406 43.7047V40.9374C65.3736 40.8624 65.1931 40.8224 65.0102 40.8197Z" fill="white"/>
<path d="M81.3283 37.1949C80.8379 38.8261 79.8263 39.6409 78.2935 39.6394C77.7868 39.6496 77.2862 39.5273 76.8412 39.2846C76.3963 39.0419 76.0225 38.6873 75.7567 38.2557C75.1417 37.3333 74.8343 36.0011 74.8343 34.2592C74.8343 32.5174 75.1417 31.1921 75.7567 30.2835C75.8473 30.1496 75.9475 30.0225 76.0565 29.903C76.3353 29.586 76.6804 29.3343 77.0674 29.1657C77.4544 28.9971 77.8738 28.9158 78.2958 28.9275C78.8428 28.9142 79.3833 29.0497 79.8593 29.3196C80.7334 29.2527 81.6143 29.2273 82.5045 29.2389C85.121 29.2661 87.7151 29.7258 90.1816 30.5995C89.5128 27.8583 88.2106 25.6951 86.275 24.1101C84.1641 22.3759 81.5613 21.5088 78.4664 21.5088C76.068 21.5088 73.9356 22.0269 72.0692 23.0631C70.2155 24.0895 68.7009 25.6337 67.7106 27.507C66.7466 29.2888 66.2285 31.3497 66.1562 33.6896C66.1562 33.8764 66.1562 34.0678 66.1562 34.2592C66.1562 36.8728 66.6767 39.1382 67.7175 41.0553C68.2498 42.0523 68.9301 42.9628 69.7354 43.7558C70.433 44.4396 71.2205 45.0254 72.0761 45.4969C73.941 46.5346 76.0734 47.0535 78.4733 47.0535C81.5682 47.0535 84.171 46.1803 86.2819 44.4338C86.5425 44.217 86.7939 43.9887 87.0337 43.7535C88.7172 42.0746 89.8265 39.8869 90.3615 37.1903L81.3283 37.1949Z" fill="white"/>
<path d="M114.576 24.4696C112.946 22.5525 110.742 21.5939 107.962 21.5939C106.417 21.5667 104.891 21.9292 103.523 22.6478C102.293 23.2909 101.243 24.2291 100.465 25.3782V13.873H91.9575V31.3095C92.8802 31.7175 93.7781 32.1795 94.6464 32.6932C95.1077 32.9722 95.7488 32.9953 96.3138 33.0898C97.4046 33.272 98.5 33.4104 99.5885 33.581C100.165 33.6733 100.35 33.9062 100.35 34.5035C100.35 36.3899 100.35 38.2786 100.35 40.1673C100.35 41.3549 99.8099 42.2428 98.7352 42.7201C97.8427 43.1168 96.9064 43.4119 95.9978 43.774C95.8736 43.8491 95.7791 43.9647 95.7303 44.1015C94.99 45.7157 93.5372 46.6566 91.9552 46.6728V46.7443H100.456V33.3689C100.456 31.9483 100.818 30.8314 101.542 30.0181C102.266 29.2048 103.265 28.7974 104.54 28.7959C105.754 28.7959 106.724 29.2033 107.448 30.0181C108.172 30.8329 108.533 31.9498 108.532 33.3689V46.7443H117.034V32.2158C117.031 28.9627 116.212 26.3806 114.576 24.4696ZM93.3319 42.3189C93.3346 41.9405 93.193 41.5754 92.9359 41.2977C92.6789 41.0201 92.3257 40.8509 91.9482 40.8245V43.8224C92.3275 43.7965 92.6824 43.6261 92.9398 43.3464C93.1972 43.0667 93.3375 42.6989 93.3319 42.3189Z" fill="white"/>
</g>
<defs>
<clipPath id="clip0_7_1003716">
<rect width="128" height="57" fill="white" transform="translate(0 0.5)"/>
</clipPath>
</defs>
</svg>
