<svg width="51" height="44" viewBox="0 0 51 44" fill="none" xmlns="http://www.w3.org/2000/svg">
<rect x="0.571533" width="50.2857" height="44" rx="22" fill="white"/>
<g clip-path="url(#clip0_7_1003667)">
<path d="M35.5168 17.8801C35.47 16.8174 35.2981 16.0868 35.052 15.4537C34.798 14.7818 34.4073 14.1801 33.8954 13.68C33.3953 13.1721 32.7896 12.7774 32.1255 12.5274C31.4888 12.2813 30.762 12.1094 29.6993 12.0626C28.6288 12.0118 28.2889 12 25.5735 12C22.8581 12 22.5182 12.0118 21.4516 12.0586C20.3889 12.1055 19.6583 12.2775 19.0254 12.5235C18.3533 12.7774 17.7517 13.1681 17.2515 13.68C16.7436 14.1801 16.3491 14.7857 16.099 15.4499C15.8528 16.0868 15.681 16.8134 15.6341 17.8761C15.5833 18.9467 15.5715 19.2866 15.5715 22.002C15.5715 24.7173 15.5833 25.0572 15.6301 26.1239C15.677 27.1866 15.849 27.9171 16.0952 28.5502C16.3491 29.2221 16.7436 29.8238 17.2515 30.3239C17.7517 30.8318 18.3573 31.2264 19.0215 31.4764C19.6583 31.7227 20.3849 31.8944 21.4478 31.9413C22.5143 31.9883 22.8543 31.9999 25.5697 31.9999C28.285 31.9999 28.6249 31.9883 29.6915 31.9413C30.7542 31.8944 31.4848 31.7227 32.1178 31.4764C33.4619 30.9568 34.5245 29.8941 35.0442 28.5502C35.2902 27.9133 35.4622 27.1866 35.509 26.1239C35.5559 25.0572 35.5676 24.7173 35.5676 22.002C35.5676 19.2866 35.5636 18.9467 35.5168 17.8801ZM33.7158 26.0457C33.6728 27.0224 33.5086 27.5499 33.3719 27.9016C33.0359 28.7729 32.3443 29.4643 31.4731 29.8004C31.1214 29.9371 30.5902 30.1012 29.6172 30.1441C28.5623 30.1911 28.246 30.2027 25.5774 30.2027C22.9089 30.2027 22.5886 30.1911 21.5375 30.1441C20.5608 30.1012 20.0333 29.9371 19.6817 29.8004C19.2481 29.6401 18.8534 29.3862 18.5331 29.0541C18.201 28.7298 17.947 28.3391 17.7868 27.9056C17.65 27.5539 17.486 27.0224 17.4431 26.0497C17.3961 24.9948 17.3845 24.6782 17.3845 22.0097C17.3845 19.3412 17.3961 19.0209 17.4431 17.9699C17.486 16.9932 17.65 16.4657 17.7868 16.1141C17.947 15.6804 18.201 15.2859 18.537 14.9654C18.8612 14.6333 19.2519 14.3793 19.6856 14.2192C20.0373 14.0825 20.5687 13.9184 21.5415 13.8754C22.5964 13.8285 22.9129 13.8168 25.5813 13.8168C28.2538 13.8168 28.5701 13.8285 29.6212 13.8754C30.598 13.9184 31.1254 14.0825 31.477 14.2192C31.9106 14.3793 32.3053 14.6333 32.6256 14.9654C32.9578 15.2897 33.2116 15.6804 33.3719 16.1141C33.5086 16.4657 33.6728 16.997 33.7158 17.9699C33.7626 19.0248 33.7744 19.3412 33.7744 22.0097C33.7744 24.6782 33.7626 24.9908 33.7158 26.0457Z" fill="black"/>
<path d="M25.5735 16.8643C22.7371 16.8643 20.4358 19.1654 20.4358 22.002C20.4358 24.8386 22.7371 27.1397 25.5735 27.1397C28.4101 27.1397 30.7112 24.8386 30.7112 22.002C30.7112 19.1654 28.4101 16.8643 25.5735 16.8643ZM25.5735 25.3347C23.7334 25.3347 22.2408 23.8422 22.2408 22.002C22.2408 20.1617 23.7334 18.6693 25.5735 18.6693C27.4138 18.6693 28.9062 20.1617 28.9062 22.002C28.9062 23.8422 27.4138 25.3347 25.5735 25.3347Z" fill="black"/>
</g>
<defs>
<clipPath id="clip0_7_1003667">
<rect width="20" height="20" fill="white" transform="translate(15.5715 12)"/>
</clipPath>
</defs>
</svg>
