<svg width="51" height="44" viewBox="0 0 51 44" fill="none" xmlns="http://www.w3.org/2000/svg">
<rect x="0.285645" width="50.2857" height="44" rx="22" fill="white"/>
<g clip-path="url(#clip0_7_1003662)">
<path d="M35.2856 15.7988C34.5419 16.125 33.7494 16.3412 32.9231 16.4462C33.7731 15.9387 34.4219 15.1412 34.7269 14.18C33.9344 14.6525 33.0594 14.9863 32.1269 15.1725C31.3744 14.3713 30.3019 13.875 29.1319 13.875C26.8619 13.875 25.0344 15.7175 25.0344 17.9763C25.0344 18.3013 25.0619 18.6137 25.1294 18.9112C21.7206 18.745 18.7044 17.1113 16.6781 14.6225C16.3244 15.2363 16.1169 15.9388 16.1169 16.695C16.1169 18.115 16.8481 19.3737 17.9381 20.1025C17.2794 20.09 16.6331 19.8988 16.0856 19.5975C16.0856 19.61 16.0856 19.6262 16.0856 19.6425C16.0856 21.635 17.5069 23.29 19.3706 23.6712C19.0369 23.7624 18.6731 23.8062 18.2956 23.8062C18.0331 23.8062 17.7681 23.7912 17.5194 23.7362C18.0506 25.36 19.5581 26.5538 21.3506 26.5924C19.9556 27.6838 18.1844 28.3412 16.2669 28.3412C15.9306 28.3412 15.6081 28.3262 15.2856 28.285C17.1019 29.4562 19.2544 30.125 21.5756 30.125C29.1206 30.125 33.2456 23.875 33.2456 18.4575C33.2456 18.2762 33.2394 18.1013 33.2306 17.9275C34.0444 17.35 34.7281 16.6288 35.2856 15.7988Z" fill="black"/>
</g>
<defs>
<clipPath id="clip0_7_1003662">
<rect width="20" height="20" fill="white" transform="translate(15.2856 12)"/>
</clipPath>
</defs>
</svg>
