<svg width="82" height="418" viewBox="0 0 82 418" fill="none" xmlns="http://www.w3.org/2000/svg">
<path d="M60.4164 0.686418C61.1419 0.286429 62.0542 0.550297 62.4542 1.27578L68.9722 13.098C69.3722 13.8235 69.1083 14.7359 68.3828 15.1358C67.6574 15.5358 66.745 15.2719 66.345 14.5465L60.5513 4.0378L50.0426 9.83156C49.3171 10.2315 48.4048 9.96766 48.0048 9.24219C47.6048 8.51672 47.8687 7.60437 48.5941 7.20438L60.4164 0.686418ZM0.699679 205.583L59.6997 1.58325L62.5816 2.41674L3.58157 206.417L0.699679 205.583Z" fill="#4D4D4D"/>
<path d="M75.4988 416.369C75.1468 417.119 74.2536 417.441 73.5036 417.089L61.2825 411.354C60.5326 411.002 60.2099 410.109 60.5619 409.359C60.9138 408.609 61.8071 408.286 62.5571 408.638L73.4202 413.736L78.5184 402.873C78.8703 402.123 79.7636 401.801 80.5136 402.153C81.2635 402.505 81.5861 403.398 81.2342 404.148L75.4988 416.369ZM3.4108 215.49L75.5517 415.222L72.7301 416.241L0.589204 216.51L3.4108 215.49Z" fill="#4D4D4D"/>
</svg>
