<svg width="82" height="418" viewBox="0 0 82 418" fill="none" xmlns="http://www.w3.org/2000/svg">
<path d="M21.7242 0.686418C20.9987 0.286429 20.0864 0.550297 19.6864 1.27578L13.1684 13.098C12.7685 13.8235 13.0323 14.7359 13.7578 15.1358C14.4833 15.5358 15.3956 15.2719 15.7956 14.5465L21.5894 4.0378L32.098 9.83156C32.8235 10.2315 33.7359 9.96766 34.1358 9.24219C34.5358 8.51672 34.272 7.60437 33.5465 7.20438L21.7242 0.686418ZM81.4409 205.583L22.4409 1.58325L19.559 2.41674L78.5591 206.417L81.4409 205.583Z" fill="#4D4D4D"/>
<path d="M6.64185 416.369C6.99379 417.119 7.88706 417.441 8.63701 417.089L20.8581 411.354C21.6081 411.002 21.9307 410.109 21.5787 409.359C21.2268 408.609 20.3335 408.286 19.5836 408.638L8.72038 413.736L3.62224 402.873C3.27029 402.123 2.37702 401.801 1.62707 402.153C0.877126 402.505 0.554491 403.398 0.906439 404.148L6.64185 416.369ZM78.7298 215.49L6.58895 415.222L9.41054 416.241L81.5514 216.51L78.7298 215.49Z" fill="#4D4D4D"/>
</svg>
