<svg width="1440" height="612" viewBox="0 0 1440 612" fill="none" xmlns="http://www.w3.org/2000/svg">
<g clip-path="url(#clip0_121_1071)">
<path d="M2115.26 -56.4072C1753.46 -1.67834 1186.23 109.079 1474.8 458.713C1842.03 903.646 2739.42 787.086 2340.86 1130.5" stroke="url(#paint0_radial_121_1071)" stroke-opacity="0.2" stroke-width="8.2894"/>
<path d="M1987.69 -77.6113C1625.9 -22.8824 1058.67 87.8751 1347.24 437.509C1714.46 882.442 2611.85 765.882 2213.29 1109.3" stroke="url(#paint1_radial_121_1071)" stroke-opacity="0.2" stroke-width="8.2894"/>
<path d="M1860.19 -99.1699C1498.39 -44.441 931.162 66.3165 1219.73 415.95C1586.96 860.883 2484.35 744.323 2085.79 1087.74" stroke="url(#paint2_radial_121_1071)" stroke-opacity="0.2" stroke-width="8.2894"/>
<path d="M1732.52 -119.766C1370.73 -65.0367 803.498 45.7208 1092.07 395.354C1459.3 840.288 2356.68 723.728 1958.12 1067.14" stroke="url(#paint3_radial_121_1071)" stroke-opacity="0.2" stroke-width="8.2894"/>
<path d="M1604.56 -138.431C1242.77 -83.7018 675.537 27.0558 964.108 376.689C1331.33 821.623 2228.72 705.063 1830.16 1048.48" stroke="url(#paint4_radial_121_1071)" stroke-opacity="0.2" stroke-width="8.2894"/>
<path d="M1476.25 -154.477C1114.45 -99.7477 547.222 11.0099 835.793 360.643C1203.02 805.577 2100.41 689.017 1701.85 1032.43" stroke="url(#paint5_radial_121_1071)" stroke-opacity="0.2" stroke-width="8.2894"/>
<path d="M1347.58 -167.438C985.787 -112.709 418.558 -1.95103 707.129 347.682C1074.36 792.616 1971.74 676.056 1573.18 1019.47" stroke="url(#paint6_radial_121_1071)" stroke-opacity="0.2" stroke-width="8.2894"/>
<path d="M1217.83 -177.137C856.032 -122.408 288.803 -11.6502 577.374 337.983C944.6 782.917 1841.99 666.357 1443.43 1009.77" stroke="url(#paint7_radial_121_1071)" stroke-opacity="0.2" stroke-width="8.2894"/>
<path d="M1088.73 -184.603C726.933 -129.874 159.704 -19.1161 448.275 330.517C815.502 775.451 1712.89 658.891 1314.33 1002.3" stroke="url(#paint8_radial_121_1071)" stroke-opacity="0.2" stroke-width="8.2894"/>
<path d="M959.536 -190.203C597.74 -135.474 30.5113 -24.7167 319.082 324.917C686.309 769.85 1583.7 653.29 1185.14 996.704" stroke="url(#paint9_radial_121_1071)" stroke-opacity="0.2" stroke-width="8.2894"/>
<path d="M830.267 -193.683C468.471 -138.954 -98.7573 -28.1961 189.813 321.437C557.04 766.371 1454.43 649.811 1055.87 993.224" stroke="url(#paint10_radial_121_1071)" stroke-opacity="0.2" stroke-width="8.2894"/>
<path d="M700.957 -194.72C339.161 -139.991 -228.068 -29.2333 60.5032 320.4C427.73 765.334 1325.12 648.774 926.557 992.187" stroke="url(#paint11_radial_121_1071)" stroke-opacity="0.2" stroke-width="8.2894"/>
<path d="M571.655 -192.906C209.859 -138.177 -357.37 -27.4198 -68.7988 322.214C298.428 767.147 1195.81 650.587 797.255 994" stroke="url(#paint12_radial_121_1071)" stroke-opacity="0.2" stroke-width="8.2894"/>
<path d="M442.445 -187.701C80.6491 -132.972 -486.58 -22.2147 -198.009 327.419C169.218 772.352 1066.6 655.792 668.045 999.205" stroke="url(#paint13_radial_121_1071)" stroke-opacity="0.2" stroke-width="8.2894"/>
<path d="M313.466 -178.378C-48.3296 -123.649 -615.558 -12.8915 -326.988 336.742C40.2391 781.675 937.626 665.115 539.066 1008.53" stroke="url(#paint14_radial_121_1071)" stroke-opacity="0.2" stroke-width="8.2894"/>
<path d="M184.961 -163.913C-176.835 -109.184 -744.063 1.57339 -455.492 351.207C-88.2657 796.14 809.121 679.58 410.561 1022.99" stroke="url(#paint15_radial_121_1071)" stroke-opacity="0.2" stroke-width="8.2894"/>
<path d="M57.3688 -142.831C-304.427 -88.1022 -871.655 22.6554 -583.085 372.289C-215.858 817.222 681.529 700.662 282.969 1044.08" stroke="url(#paint16_radial_121_1071)" stroke-opacity="0.2" stroke-width="8.2894"/>
<path d="M-68.4284 -113.024C-430.224 -58.2955 -997.453 52.4621 -708.882 402.096C-341.655 847.029 555.732 730.469 157.172 1073.88" stroke="url(#paint17_radial_121_1071)" stroke-opacity="0.2" stroke-width="8.2894"/>
<path d="M-190.54 -73.2656C-552.336 -18.5367 -1119.56 92.2208 -830.994 441.854C-463.767 886.788 433.619 770.228 35.0596 1113.64" stroke="url(#paint18_radial_121_1071)" stroke-opacity="0.2" stroke-width="8.2894"/>
</g>
<defs>
<radialGradient id="paint0_radial_121_1071" cx="0" cy="0" r="1" gradientUnits="userSpaceOnUse" gradientTransform="translate(1918.27 537.046) rotate(90) scale(593.453 522.552)">
<stop stop-color="#D4EDEA"/>
<stop offset="1" stop-color="#9EA9A8" stop-opacity="0"/>
</radialGradient>
<radialGradient id="paint1_radial_121_1071" cx="0" cy="0" r="1" gradientUnits="userSpaceOnUse" gradientTransform="translate(1790.71 515.842) rotate(90) scale(593.453 522.552)">
<stop stop-color="#D4EDEA"/>
<stop offset="1" stop-color="#9EA9A8" stop-opacity="0"/>
</radialGradient>
<radialGradient id="paint2_radial_121_1071" cx="0" cy="0" r="1" gradientUnits="userSpaceOnUse" gradientTransform="translate(1663.2 494.283) rotate(90) scale(593.453 522.552)">
<stop stop-color="#D4EDEA"/>
<stop offset="1" stop-color="#9EA9A8" stop-opacity="0"/>
</radialGradient>
<radialGradient id="paint3_radial_121_1071" cx="0" cy="0" r="1" gradientUnits="userSpaceOnUse" gradientTransform="translate(1535.54 473.688) rotate(90) scale(593.453 522.552)">
<stop stop-color="#D4EDEA"/>
<stop offset="1" stop-color="#9EA9A8" stop-opacity="0"/>
</radialGradient>
<radialGradient id="paint4_radial_121_1071" cx="0" cy="0" r="1" gradientUnits="userSpaceOnUse" gradientTransform="translate(1407.58 455.023) rotate(90) scale(593.453 522.552)">
<stop stop-color="#D4EDEA"/>
<stop offset="1" stop-color="#9EA9A8" stop-opacity="0"/>
</radialGradient>
<radialGradient id="paint5_radial_121_1071" cx="0" cy="0" r="1" gradientUnits="userSpaceOnUse" gradientTransform="translate(1279.26 438.977) rotate(90) scale(593.453 522.552)">
<stop stop-color="#D4EDEA"/>
<stop offset="1" stop-color="#9EA9A8" stop-opacity="0"/>
</radialGradient>
<radialGradient id="paint6_radial_121_1071" cx="0" cy="0" r="1" gradientUnits="userSpaceOnUse" gradientTransform="translate(1150.6 426.016) rotate(90) scale(593.453 522.552)">
<stop stop-color="#D4EDEA"/>
<stop offset="1" stop-color="#9EA9A8" stop-opacity="0"/>
</radialGradient>
<radialGradient id="paint7_radial_121_1071" cx="0" cy="0" r="1" gradientUnits="userSpaceOnUse" gradientTransform="translate(1020.84 416.317) rotate(90) scale(593.453 522.552)">
<stop stop-color="#D4EDEA"/>
<stop offset="1" stop-color="#9EA9A8" stop-opacity="0"/>
</radialGradient>
<radialGradient id="paint8_radial_121_1071" cx="0" cy="0" r="1" gradientUnits="userSpaceOnUse" gradientTransform="translate(891.743 408.851) rotate(90) scale(593.453 522.552)">
<stop stop-color="#D4EDEA"/>
<stop offset="1" stop-color="#9EA9A8" stop-opacity="0"/>
</radialGradient>
<radialGradient id="paint9_radial_121_1071" cx="0" cy="0" r="1" gradientUnits="userSpaceOnUse" gradientTransform="translate(762.55 403.25) rotate(90) scale(593.453 522.552)">
<stop stop-color="#D4EDEA"/>
<stop offset="1" stop-color="#9EA9A8" stop-opacity="0"/>
</radialGradient>
<radialGradient id="paint10_radial_121_1071" cx="0" cy="0" r="1" gradientUnits="userSpaceOnUse" gradientTransform="translate(633.281 399.771) rotate(90) scale(593.453 522.552)">
<stop stop-color="#D4EDEA"/>
<stop offset="1" stop-color="#9EA9A8" stop-opacity="0"/>
</radialGradient>
<radialGradient id="paint11_radial_121_1071" cx="0" cy="0" r="1" gradientUnits="userSpaceOnUse" gradientTransform="translate(503.971 398.734) rotate(90) scale(593.453 522.552)">
<stop stop-color="#D4EDEA"/>
<stop offset="1" stop-color="#9EA9A8" stop-opacity="0"/>
</radialGradient>
<radialGradient id="paint12_radial_121_1071" cx="0" cy="0" r="1" gradientUnits="userSpaceOnUse" gradientTransform="translate(374.669 400.547) rotate(90) scale(593.453 522.552)">
<stop stop-color="#D4EDEA"/>
<stop offset="1" stop-color="#9EA9A8" stop-opacity="0"/>
</radialGradient>
<radialGradient id="paint13_radial_121_1071" cx="0" cy="0" r="1" gradientUnits="userSpaceOnUse" gradientTransform="translate(245.459 405.752) rotate(90) scale(593.453 522.552)">
<stop stop-color="#D4EDEA"/>
<stop offset="1" stop-color="#9EA9A8" stop-opacity="0"/>
</radialGradient>
<radialGradient id="paint14_radial_121_1071" cx="0" cy="0" r="1" gradientUnits="userSpaceOnUse" gradientTransform="translate(116.48 415.075) rotate(90) scale(593.453 522.552)">
<stop stop-color="#D4EDEA"/>
<stop offset="1" stop-color="#9EA9A8" stop-opacity="0"/>
</radialGradient>
<radialGradient id="paint15_radial_121_1071" cx="0" cy="0" r="1" gradientUnits="userSpaceOnUse" gradientTransform="translate(-12.0248 429.54) rotate(90) scale(593.453 522.552)">
<stop stop-color="#D4EDEA"/>
<stop offset="1" stop-color="#9EA9A8" stop-opacity="0"/>
</radialGradient>
<radialGradient id="paint16_radial_121_1071" cx="0" cy="0" r="1" gradientUnits="userSpaceOnUse" gradientTransform="translate(-139.617 450.622) rotate(90) scale(593.453 522.552)">
<stop stop-color="#D4EDEA"/>
<stop offset="1" stop-color="#9EA9A8" stop-opacity="0"/>
</radialGradient>
<radialGradient id="paint17_radial_121_1071" cx="0" cy="0" r="1" gradientUnits="userSpaceOnUse" gradientTransform="translate(-265.414 480.429) rotate(90) scale(593.453 522.552)">
<stop stop-color="#D4EDEA"/>
<stop offset="1" stop-color="#9EA9A8" stop-opacity="0"/>
</radialGradient>
<radialGradient id="paint18_radial_121_1071" cx="0" cy="0" r="1" gradientUnits="userSpaceOnUse" gradientTransform="translate(-387.526 520.188) rotate(90) scale(593.453 522.552)">
<stop stop-color="#D4EDEA"/>
<stop offset="1" stop-color="#9EA9A8" stop-opacity="0"/>
</radialGradient>
<clipPath id="clip0_121_1071">
<rect width="1530" height="612" fill="white" transform="translate(-45)"/>
</clipPath>
</defs>
</svg>
