<svg width="1289" height="543" viewBox="0 0 1289 543" fill="none" xmlns="http://www.w3.org/2000/svg">
<path d="M187 530.5H4L187 3H370L187 530.5Z" fill="url(#paint0_linear_146_631)"/>
<path d="M187 530.5H4L187 3H370L187 530.5Z" fill="url(#paint1_linear_146_631)"/>
<path d="M187 530.5H4L187 3H370L187 530.5Z" fill="white" fill-opacity="0.2"/>
<path d="M187 530.5H4L187 3H370L187 530.5Z" stroke="url(#paint2_linear_146_631)" stroke-width="5" stroke-linecap="round"/>
<path d="M187 530.5H4L187 3H370L187 530.5Z" stroke="url(#paint3_linear_146_631)" stroke-width="5" stroke-linecap="round"/>
<g filter="url(#filter0_d_146_631)">
<path d="M119.373 487.385L115.931 497.284L120.064 500.5L117.713 507.263L94.5267 488.444L97.1277 480.964L126.987 480.589L124.609 487.427L119.373 487.385ZM113.807 487.314L102.955 487.225L111.535 493.85L113.807 487.314ZM102.29 461.487L130.249 471.208L128.002 477.668L100.044 467.947L102.29 461.487ZM106.165 450.344L134.123 460.065L131.877 466.526L103.918 456.805L106.165 450.344ZM125.456 433.593L130.821 435.459L125.041 452.083L119.676 450.217L125.456 433.593ZM121.227 422.126C120.833 423.259 120.182 424.077 119.273 424.58C118.348 425.049 117.394 425.112 116.411 424.771C115.404 424.421 114.695 423.779 114.286 422.846C113.86 421.879 113.844 420.829 114.238 419.695C114.623 418.587 115.278 417.799 116.204 417.33C117.112 416.827 118.071 416.751 119.078 417.101C120.06 417.443 120.765 418.097 121.191 419.064C121.6 419.997 121.613 421.017 121.227 422.126ZM124.535 419.676L145.617 427.006L143.371 433.467L122.289 426.137L124.535 419.676ZM130.403 402.07C131.261 399.601 132.75 397.917 134.87 397.017C136.974 396.082 139.423 396.101 142.219 397.073L154.536 401.356L152.303 407.778L140.855 403.798C139.444 403.308 138.222 403.292 137.187 403.751C136.152 404.21 135.42 405.056 134.991 406.291C134.562 407.525 134.611 408.643 135.138 409.645C135.664 410.647 136.633 411.393 138.044 411.883L149.491 415.864L147.245 422.324L126.163 414.994L128.409 408.534L131.205 409.506C130.501 408.527 130.077 407.391 129.933 406.099C129.765 404.798 129.921 403.455 130.403 402.07ZM145.802 375.077L151.167 376.942L145.387 393.566L140.022 391.7L145.802 375.077ZM168.343 362.498C167.476 364.992 166.099 367.083 164.214 368.77C162.337 370.433 160.151 371.522 157.657 372.038C155.146 372.52 152.593 372.31 149.999 371.408C147.405 370.506 145.285 369.092 143.64 367.165C142.004 365.212 140.965 363.002 140.525 360.534C140.093 358.04 140.311 355.547 141.178 353.053C142.045 350.56 143.417 348.482 145.293 346.819C147.179 345.132 149.36 344.055 151.837 343.589C154.323 343.098 156.863 343.304 159.457 344.206C162.052 345.108 164.184 346.527 165.854 348.463C167.499 350.39 168.542 352.588 168.982 355.056C169.423 357.524 169.21 360.005 168.343 362.498ZM162.449 360.449C163.184 358.333 163.066 356.401 162.093 354.651C161.129 352.876 159.489 351.585 157.172 350.78C154.829 349.965 152.742 349.96 150.91 350.762C149.062 351.531 147.77 352.974 147.034 355.09C146.29 357.23 146.387 359.184 147.325 360.95C148.273 362.691 149.93 363.973 152.298 364.797C154.64 365.611 156.736 365.634 158.584 364.865C160.416 364.062 161.704 362.59 162.449 360.449ZM157.201 324.994C158.06 322.526 159.549 320.841 161.669 319.941C163.772 319.007 166.222 319.025 169.018 319.998L181.334 324.28L179.101 330.703L167.654 326.723C166.243 326.232 165.02 326.216 163.986 326.675C162.951 327.134 162.219 327.981 161.79 329.215C161.361 330.449 161.409 331.567 161.936 332.569C162.463 333.571 163.432 334.317 164.842 334.808L176.29 338.788L174.044 345.249L152.962 337.919L155.208 331.458L158.004 332.43C157.3 331.451 156.876 330.316 156.732 329.023C156.563 327.723 156.72 326.379 157.201 324.994ZM178.924 296.134C179.529 296.344 180.145 296.601 180.774 296.904L175.69 311.526C177.035 311.88 178.187 311.815 179.146 311.33C180.089 310.811 180.749 310.01 181.125 308.927C181.686 307.315 181.395 305.957 180.254 304.855L182.645 297.978C183.908 298.813 184.931 299.888 185.715 301.206C186.508 302.498 186.979 303.946 187.127 305.55C187.275 307.155 187.051 308.813 186.456 310.526C185.737 312.591 184.657 314.277 183.215 315.582C181.773 316.888 180.076 317.709 178.123 318.047C176.171 318.384 174.099 318.172 171.908 317.41C169.716 316.648 167.955 315.542 166.625 314.091C165.303 312.615 164.481 310.918 164.16 308.999C163.839 307.081 164.042 305.076 164.769 302.986C165.478 300.945 166.537 299.281 167.945 297.992C169.353 296.703 171.004 295.893 172.897 295.563C174.799 295.208 176.808 295.399 178.924 296.134ZM174.925 302.155C173.817 301.769 172.804 301.841 171.886 302.369C170.969 302.897 170.313 303.727 169.919 304.861C169.542 305.944 169.537 306.973 169.904 307.947C170.28 308.897 171.017 309.661 172.114 310.24L174.925 302.155ZM180.094 284.974C177.474 284.064 175.342 282.687 173.696 280.844C172.024 278.992 170.972 276.862 170.539 274.453C170.09 272.01 170.312 269.504 171.205 266.935C172.3 263.786 174.068 261.38 176.51 259.717C178.952 258.053 181.74 257.342 184.874 257.585L182.404 264.688C181.112 264.832 180.006 265.294 179.085 266.075C178.173 266.83 177.502 267.825 177.073 269.06C176.381 271.049 176.513 272.902 177.47 274.618C178.426 276.334 180.062 277.595 182.38 278.4C184.697 279.206 186.763 279.233 188.577 278.48C190.392 277.728 191.645 276.357 192.337 274.367C192.766 273.133 192.857 271.936 192.611 270.778C192.373 269.594 191.792 268.545 190.867 267.631L193.337 260.528C195.946 262.282 197.692 264.568 198.574 267.388C199.432 270.199 199.314 273.179 198.219 276.327C197.326 278.896 195.958 281.004 194.115 282.65C192.256 284.262 190.109 285.28 187.675 285.705C185.24 286.129 182.713 285.885 180.094 284.974ZM207.419 250.233C206.701 252.298 205.612 254.009 204.153 255.364C202.702 256.695 200.991 257.554 199.021 257.942C197.06 258.305 194.984 258.105 192.793 257.343C190.626 256.59 188.891 255.451 187.587 253.924C186.257 252.389 185.441 250.637 185.137 248.668C184.833 246.699 185.041 244.682 185.759 242.617C186.477 240.551 187.566 238.841 189.025 237.485C190.485 236.129 192.212 235.261 194.207 234.882C196.177 234.494 198.245 234.677 200.412 235.43C202.578 236.183 204.321 237.34 205.642 238.9C206.946 240.427 207.746 242.187 208.041 244.181C208.344 246.15 208.137 248.167 207.419 250.233ZM201.827 248.288C202.257 247.054 202.167 245.851 201.558 244.68C200.957 243.483 199.813 242.591 198.126 242.004C196.438 241.417 194.992 241.395 193.788 241.936C192.592 242.452 191.78 243.327 191.35 244.561C190.913 245.82 191.003 247.023 191.62 248.17C192.213 249.307 193.366 250.174 195.078 250.77C196.766 251.356 198.203 251.404 199.39 250.914C200.586 250.398 201.398 249.523 201.827 248.288ZM195.302 215.413C196.16 212.945 197.649 211.26 199.769 210.36C201.873 209.426 204.322 209.445 207.118 210.417L219.435 214.699L217.202 221.122L205.754 217.142C204.344 216.651 203.121 216.635 202.086 217.094C201.051 217.553 200.319 218.4 199.89 219.634C199.461 220.868 199.51 221.986 200.037 222.988C200.564 223.99 201.532 224.736 202.943 225.227L214.391 229.207L212.144 235.668L191.062 228.338L193.309 221.877L196.104 222.849C195.4 221.87 194.976 220.735 194.833 219.443C194.664 218.142 194.82 216.799 195.302 215.413ZM218.248 198.625L204.801 188.825L207.192 181.949L225.673 196.759L222.901 204.731L199.218 204.882L201.622 197.968L218.248 198.625ZM225.248 162.903C225.852 163.113 226.469 163.37 227.097 163.673L222.014 178.295C223.358 178.649 224.51 178.584 225.47 178.099C226.412 177.58 227.072 176.778 227.449 175.695C228.009 174.083 227.719 172.726 226.578 171.623L228.968 164.747C230.231 165.582 231.255 166.657 232.039 167.975C232.832 169.267 233.302 170.715 233.45 172.319C233.598 173.923 233.375 175.582 232.779 177.295C232.061 179.36 230.981 181.045 229.539 182.351C228.097 183.656 226.4 184.478 224.447 184.815C222.495 185.153 220.423 184.941 218.231 184.179C216.04 183.417 214.279 182.311 212.948 180.86C211.626 179.384 210.805 177.687 210.484 175.768C210.163 173.849 210.366 171.845 211.093 169.754C211.802 167.714 212.861 166.05 214.269 164.76C215.677 163.471 217.328 162.662 219.221 162.332C221.123 161.977 223.132 162.167 225.248 162.903ZM221.249 168.924C220.14 168.538 219.128 168.61 218.21 169.138C217.292 169.665 216.636 170.496 216.242 171.63C215.866 172.713 215.861 173.742 216.228 174.716C216.604 175.665 217.34 176.43 218.438 177.009L221.249 168.924ZM220.471 143.023C221.33 140.555 222.819 138.871 224.939 137.97C227.042 137.036 229.492 137.055 232.288 138.027L244.605 142.309L242.371 148.732L230.924 144.752C229.513 144.261 228.29 144.246 227.256 144.705C226.221 145.164 225.489 146.01 225.06 147.244C224.631 148.479 224.679 149.597 225.206 150.599C225.733 151.6 226.702 152.347 228.112 152.837L239.56 156.817L237.314 163.278L216.232 155.948L218.478 149.487L221.274 150.459C220.57 149.48 220.146 148.345 220.002 147.053C219.833 145.752 219.99 144.409 220.471 143.023ZM224.022 126.479C223.628 127.612 222.976 128.43 222.067 128.933C221.142 129.402 220.188 129.465 219.206 129.124C218.199 128.773 217.49 128.132 217.08 127.199C216.654 126.232 216.638 125.182 217.032 124.048C217.418 122.94 218.073 122.152 218.998 121.683C219.907 121.18 220.865 121.104 221.873 121.454C222.855 121.796 223.559 122.45 223.985 123.417C224.395 124.35 224.407 125.37 224.022 126.479ZM227.33 124.029L248.412 131.359L246.165 137.82L225.083 130.49L227.33 124.029ZM246.068 103.021C246.673 103.231 247.289 103.488 247.918 103.791L242.834 118.413C244.179 118.767 245.331 118.702 246.29 118.217C247.233 117.697 247.893 116.896 248.269 115.813C248.83 114.201 248.539 112.844 247.398 111.741L249.789 104.865C251.052 105.699 252.075 106.775 252.859 108.093C253.652 109.385 254.123 110.833 254.271 112.437C254.419 114.041 254.195 115.7 253.6 117.413C252.882 119.478 251.802 121.163 250.359 122.469C248.917 123.774 247.22 124.596 245.268 124.933C243.315 125.271 241.243 125.059 239.052 124.297C236.861 123.535 235.1 122.429 233.769 120.978C232.447 119.502 231.626 117.804 231.305 115.886C230.983 113.967 231.186 111.963 231.913 109.872C232.623 107.832 233.681 106.167 235.089 104.878C236.498 103.589 238.148 102.78 240.042 102.45C241.944 102.095 243.953 102.285 246.068 103.021ZM242.069 109.042C240.961 108.656 239.948 108.728 239.031 109.255C238.113 109.783 237.457 110.614 237.063 111.748C236.686 112.831 236.682 113.859 237.049 114.834C237.424 115.783 238.161 116.548 239.258 117.127L242.069 109.042ZM241.292 83.1413C242.15 80.673 243.639 78.9886 245.759 78.0882C247.863 77.1538 250.313 77.1727 253.108 78.1448L265.425 82.4272L263.192 88.8501L251.744 84.8698C250.334 84.3793 249.111 84.3636 248.076 84.8226C247.041 85.2815 246.309 86.1281 245.88 87.3623C245.451 88.5965 245.5 89.7145 246.027 90.7165C246.554 91.7184 247.522 92.4646 248.933 92.955L260.381 96.9353L258.134 103.396L237.052 96.0658L239.299 89.6052L242.095 90.5773C241.39 89.5984 240.966 88.4629 240.823 87.1707C240.654 85.8698 240.81 84.5267 241.292 83.1413ZM255.998 75.5573C253.807 74.7954 252.046 73.689 250.715 72.2382C249.394 70.7622 248.568 69.0775 248.238 67.1842C247.917 65.2657 248.115 63.2737 248.833 61.2083C249.753 58.5636 251.212 56.6006 253.21 55.3191C255.217 54.0124 257.577 53.5199 260.288 53.8416L257.897 60.7178C256.084 60.7366 254.888 61.5772 254.31 63.2396C253.898 64.4234 254.036 65.53 254.723 66.5592C255.384 67.5798 256.571 68.3878 258.284 68.9833C259.997 69.5788 261.442 69.686 262.619 69.3047C263.771 68.9148 264.553 68.1279 264.964 66.944C265.542 65.2817 265.126 63.8806 263.716 62.7408L266.106 55.8645C268.382 57.2769 269.914 59.1225 270.703 61.4012C271.492 63.68 271.431 66.1291 270.52 68.7486C269.802 70.814 268.722 72.4994 267.28 73.8049C265.846 75.0852 264.153 75.8941 262.201 76.2316C260.257 76.544 258.19 76.3192 255.998 75.5573ZM270.968 31.406C271.573 31.6162 272.189 31.8729 272.818 32.1761L267.734 46.7975C269.079 47.1522 270.231 47.0869 271.19 46.6017C272.133 46.0825 272.793 45.2814 273.169 44.1983C273.73 42.5863 273.439 41.229 272.298 40.1264L274.689 33.2502C275.952 34.0845 276.975 35.1603 277.76 36.4775C278.553 37.7696 279.023 39.2178 279.171 40.822C279.319 42.4263 279.095 44.0848 278.5 45.7976C277.782 47.863 276.702 49.5484 275.26 50.8539C273.817 52.1594 272.12 52.9809 270.168 53.3184C268.215 53.6559 266.143 53.4437 263.952 52.6818C261.761 51.9199 260 50.8135 258.669 49.3627C257.347 47.8867 256.526 46.1895 256.205 44.2709C255.883 42.3524 256.086 40.3479 256.813 38.2573C257.523 36.2171 258.581 34.5525 259.989 33.2634C261.398 31.9744 263.048 31.1649 264.942 30.8351C266.844 30.48 268.853 30.6703 270.968 31.406ZM266.969 37.4266C265.861 37.0413 264.848 37.1126 263.931 37.6405C263.013 38.1684 262.357 38.9991 261.963 40.1325C261.586 41.2156 261.582 42.2444 261.949 43.219C262.324 44.1684 263.061 44.9327 264.158 45.5118L266.969 37.4266Z" fill="white"/>
</g>
<path d="M370 530.5H187L370 3H553L370 530.5Z" fill="url(#paint4_linear_146_631)"/>
<path d="M370 530.5H187L370 3H553L370 530.5Z" fill="url(#paint5_linear_146_631)" fill-opacity="0.2"/>
<path d="M370 530.5H187L370 3H553L370 530.5Z" fill="black" fill-opacity="0.2"/>
<path d="M370 530.5H187L370 3H553L370 530.5Z" stroke="url(#paint6_linear_146_631)" stroke-width="5" stroke-linecap="round"/>
<path d="M370 530.5H187L370 3H553L370 530.5Z" stroke="url(#paint7_linear_146_631)" stroke-width="5" stroke-linecap="round"/>
<g filter="url(#filter1_d_146_631)">
<path d="M332.918 432.661C332.244 434.601 331.325 436.229 330.161 437.547C328.997 438.864 327.636 439.774 326.077 440.277C324.528 440.755 322.876 440.717 321.12 440.163L323.511 433.287C324.528 433.527 325.402 433.45 326.132 433.055C326.838 432.651 327.352 431.982 327.676 431.051C328.009 430.093 328.058 429.263 327.822 428.56C327.561 427.849 327.041 427.357 326.26 427.085C325.605 426.858 324.985 426.896 324.399 427.201C323.822 427.48 323.281 427.899 322.776 428.457C322.28 428.991 321.65 429.788 320.886 430.849C319.761 432.378 318.746 433.592 317.841 434.491C316.935 435.39 315.83 436.051 314.526 436.473C313.222 436.894 311.739 436.816 310.076 436.238C307.608 435.38 305.992 433.816 305.229 431.546C304.44 429.267 304.545 426.692 305.543 423.821C306.559 420.899 308.083 418.789 310.115 417.491C312.122 416.185 314.395 415.902 316.932 416.643L314.502 423.632C313.628 423.385 312.851 423.468 312.171 423.881C311.466 424.285 310.956 424.94 310.64 425.847C310.369 426.628 310.364 427.332 310.626 427.96C310.862 428.578 311.371 429.023 312.152 429.295C313.008 429.593 313.816 429.422 314.575 428.782C315.333 428.142 316.288 427.063 317.437 425.542C318.612 424.031 319.648 422.838 320.545 421.964C321.45 421.065 322.542 420.4 323.821 419.97C325.1 419.539 326.533 419.6 328.12 420.152C329.631 420.677 330.868 421.545 331.831 422.755C332.803 423.94 333.4 425.389 333.622 427.104C333.845 428.819 333.61 430.671 332.918 432.661ZM333.428 395.265C334.032 395.475 334.649 395.732 335.277 396.035L330.193 410.657C331.538 411.011 332.69 410.946 333.649 410.461C334.592 409.942 335.252 409.14 335.628 408.057C336.189 406.445 335.899 405.088 334.757 403.986L337.148 397.109C338.411 397.944 339.434 399.019 340.219 400.337C341.012 401.629 341.482 403.077 341.63 404.681C341.778 406.285 341.554 407.944 340.959 409.657C340.241 411.722 339.161 413.408 337.719 414.713C336.277 416.019 334.579 416.84 332.627 417.178C330.674 417.515 328.603 417.303 326.411 416.541C324.22 415.779 322.459 414.673 321.128 413.222C319.806 411.746 318.985 410.049 318.664 408.13C318.343 406.212 318.546 404.207 319.272 402.116C319.982 400.076 321.04 398.412 322.449 397.123C323.857 395.833 325.507 395.024 327.401 394.694C329.303 394.339 331.312 394.529 333.428 395.265ZM329.428 401.286C328.32 400.9 327.307 400.972 326.39 401.5C325.472 402.028 324.816 402.858 324.422 403.992C324.046 405.075 324.041 406.104 324.408 407.078C324.783 408.028 325.52 408.792 326.617 409.371L329.428 401.286ZM334.468 393.246C332.302 392.493 330.541 391.429 329.184 390.054C327.835 388.653 326.966 387.095 326.575 385.378C326.183 383.661 326.29 381.933 326.894 380.195C327.411 378.709 328.164 377.517 329.154 376.619C330.153 375.696 331.248 375.103 332.441 374.84L329.456 373.802L331.702 367.341L352.784 374.671L350.538 381.132L347.553 380.094C348.317 381.065 348.804 382.223 349.014 383.567C349.233 384.885 349.084 386.287 348.568 387.773C347.972 389.486 346.988 390.894 345.616 391.998C344.219 393.094 342.558 393.772 340.631 394.034C338.689 394.262 336.634 394 334.468 393.246ZM339.997 377.467C338.385 376.906 336.955 376.918 335.708 377.5C334.47 378.058 333.627 378.979 333.18 380.263C332.734 381.548 332.819 382.806 333.436 384.037C334.036 385.233 335.142 386.112 336.754 386.672C338.366 387.233 339.804 387.239 341.067 386.69C342.315 386.107 343.162 385.174 343.608 383.889C344.055 382.605 343.965 381.359 343.34 380.154C342.723 378.923 341.609 378.027 339.997 377.467ZM342.454 335.688C343.365 333.069 344.88 331.266 347.001 330.282C349.131 329.272 351.607 329.257 354.428 330.238L366.744 334.521L364.511 340.943L353.063 336.963C351.703 336.49 350.531 336.492 349.547 336.969C348.546 337.411 347.826 338.262 347.389 339.521C346.951 340.781 346.983 341.907 347.484 342.9C347.97 343.859 348.892 344.575 350.252 345.048L361.7 349.029L359.467 355.452L348.019 351.471C346.659 350.998 345.487 351 344.502 351.477C343.501 351.919 342.782 352.77 342.344 354.029C341.906 355.289 341.938 356.415 342.44 357.408C342.925 358.367 343.848 359.084 345.208 359.556L356.656 363.537L354.409 369.997L333.327 362.667L335.574 356.207L338.218 357.126C337.565 356.165 337.17 355.068 337.034 353.835C336.873 352.593 337.024 351.304 337.488 349.97C338.04 348.383 338.87 347.09 339.98 346.093C341.098 345.07 342.409 344.425 343.913 344.157C343.009 343.024 342.41 341.701 342.118 340.187C341.825 338.674 341.937 337.174 342.454 335.688ZM342.604 313.821L370.562 323.542L368.315 330.002L340.357 320.281L342.604 313.821ZM368.218 295.203C368.823 295.414 369.439 295.67 370.068 295.974L364.984 310.595C366.329 310.95 367.481 310.884 368.44 310.399C369.383 309.88 370.043 309.079 370.419 307.996C370.98 306.384 370.689 305.026 369.548 303.924L371.939 297.048C373.202 297.882 374.225 298.958 375.009 300.275C375.802 301.567 376.273 303.015 376.421 304.619C376.569 306.224 376.345 307.882 375.75 309.595C375.032 311.66 373.952 313.346 372.509 314.651C371.067 315.957 369.37 316.778 367.418 317.116C365.465 317.453 363.393 317.241 361.202 316.479C359.011 315.717 357.25 314.611 355.919 313.16C354.597 311.684 353.776 309.987 353.455 308.068C353.133 306.15 353.336 304.145 354.063 302.055C354.773 300.014 355.831 298.35 357.239 297.061C358.648 295.772 360.298 294.962 362.192 294.632C364.094 294.277 366.103 294.468 368.218 295.203ZM364.219 301.224C363.111 300.839 362.098 300.91 361.181 301.438C360.263 301.966 359.607 302.796 359.213 303.93C358.836 305.013 358.832 306.042 359.199 307.016C359.574 307.966 360.311 308.73 361.408 309.309L364.219 301.224ZM383.569 287.107C382.929 288.946 382.045 290.473 380.916 291.69C379.788 292.907 378.537 293.743 377.165 294.197C375.768 294.643 374.372 294.68 372.976 294.308L375.196 287.923C375.953 288.101 376.663 287.967 377.327 287.52C377.99 287.073 378.475 286.409 378.782 285.527C379.062 284.721 379.126 284.052 378.972 283.518C378.802 282.951 378.466 282.58 377.962 282.405C377.357 282.195 376.807 282.356 376.311 282.89C375.79 283.414 375.108 284.321 374.265 285.608C373.387 286.997 372.584 288.129 371.855 289.006C371.102 289.873 370.183 290.527 369.098 290.969C367.987 291.402 366.714 291.368 365.279 290.869C364.07 290.449 363.088 289.74 362.333 288.744C361.562 287.714 361.11 286.455 360.978 284.969C360.854 283.458 361.103 281.808 361.724 280.02C362.644 277.375 364.021 275.525 365.857 274.469C367.701 273.388 369.745 273.111 371.99 273.637L369.914 279.607C369.149 279.454 368.456 279.58 367.835 279.985C367.223 280.365 366.764 280.996 366.457 281.877C366.194 282.633 366.144 283.265 366.306 283.773C366.443 284.272 366.763 284.61 367.267 284.785C367.872 284.995 368.435 284.838 368.956 284.313C369.486 283.763 370.138 282.861 370.913 281.606C371.859 280.184 372.705 279.052 373.449 278.21C374.169 277.359 375.096 276.722 376.231 276.298C377.351 275.84 378.645 275.853 380.115 276.335C381.349 276.764 382.334 277.502 383.072 278.549C383.792 279.562 384.202 280.82 384.301 282.322C384.408 283.799 384.164 285.394 383.569 287.107ZM390.894 266.039C390.254 267.878 389.37 269.406 388.241 270.623C387.113 271.839 385.862 272.675 384.49 273.13C383.093 273.576 381.697 273.612 380.301 273.24L382.521 266.855C383.278 267.034 383.988 266.899 384.652 266.452C385.315 266.006 385.8 265.341 386.107 264.46C386.387 263.654 386.451 262.984 386.297 262.451C386.127 261.884 385.791 261.513 385.287 261.337C384.682 261.127 384.132 261.289 383.636 261.822C383.115 262.347 382.433 263.253 381.59 264.541C380.712 265.93 379.909 267.062 379.181 267.938C378.427 268.805 377.508 269.46 376.423 269.901C375.312 270.334 374.039 270.301 372.604 269.802C371.395 269.381 370.413 268.673 369.658 267.676C368.887 266.646 368.435 265.388 368.303 263.902C368.179 262.391 368.428 260.741 369.05 258.953C369.969 256.308 371.346 254.458 373.182 253.402C375.026 252.321 377.07 252.043 379.315 252.57L377.239 258.539C376.474 258.386 375.781 258.512 375.16 258.917C374.548 259.297 374.089 259.928 373.782 260.81C373.519 261.565 373.469 262.197 373.631 262.705C373.768 263.205 374.088 263.542 374.592 263.717C375.197 263.927 375.76 263.77 376.281 263.245C376.811 262.696 377.463 261.793 378.238 260.538C379.184 259.117 380.03 257.985 380.774 257.143C381.494 256.292 382.421 255.654 383.557 255.23C384.676 254.772 385.97 254.785 387.44 255.268C388.674 255.697 389.66 256.435 390.397 257.482C391.117 258.494 391.527 259.752 391.626 261.254C391.733 262.732 391.489 264.327 390.894 266.039ZM394.978 237.242L397.92 228.779L402.907 230.513L397.718 245.437L371.196 236.215L373.442 229.754L394.978 237.242ZM381.835 216.09C381.441 217.224 380.789 218.042 379.881 218.545C378.955 219.013 378.002 219.077 377.019 218.736C376.012 218.385 375.303 217.744 374.893 216.811C374.467 215.844 374.451 214.794 374.845 213.66C375.231 212.552 375.886 211.763 376.811 211.295C377.72 210.792 378.678 210.716 379.686 211.066C380.668 211.407 381.372 212.062 381.798 213.029C382.208 213.962 382.22 214.982 381.835 216.09ZM385.143 213.641L406.225 220.971L403.979 227.432L382.897 220.101L385.143 213.641ZM405.105 204.704L391.658 194.904L394.048 188.028L412.529 202.839L409.758 210.811L386.075 210.961L388.479 204.047L405.105 204.704ZM393.932 181.298C393.538 182.431 392.887 183.249 391.978 183.752C391.053 184.221 390.099 184.284 389.116 183.943C388.109 183.592 387.4 182.951 386.991 182.018C386.565 181.051 386.549 180.001 386.943 178.867C387.328 177.759 387.983 176.97 388.909 176.502C389.817 175.999 390.776 175.923 391.783 176.273C392.765 176.615 393.47 177.269 393.896 178.236C394.305 179.169 394.318 180.189 393.932 181.298ZM397.24 178.848L418.322 186.178L416.076 192.639L394.994 185.309L397.24 178.848ZM403.108 161.242C403.966 158.773 405.455 157.089 407.575 156.188C409.679 155.254 412.128 155.273 414.924 156.245L427.241 160.527L425.008 166.95L413.56 162.97C412.149 162.48 410.927 162.464 409.892 162.923C408.857 163.382 408.125 164.228 407.696 165.462C407.267 166.697 407.316 167.815 407.843 168.817C408.369 169.819 409.338 170.565 410.749 171.055L422.196 175.036L419.95 181.496L398.868 174.166L401.114 167.705L403.91 168.678C403.206 167.699 402.782 166.563 402.638 165.271C402.47 163.97 402.626 162.627 403.108 161.242ZM410.202 140.593C410.719 139.107 411.472 137.915 412.462 137.017C413.461 136.094 414.556 135.501 415.749 135.238L412.764 134.2L415.01 127.739L436.055 135.056C437.994 135.73 439.609 136.73 440.899 138.053C442.223 139.361 443.075 140.97 443.455 142.881C443.844 144.766 443.632 146.88 442.817 149.223C441.731 152.346 440.108 154.619 437.948 156.042C435.813 157.473 433.437 157.89 430.822 157.291L433.042 150.906C433.918 150.985 434.714 150.725 435.431 150.127C436.172 149.538 436.735 148.689 437.121 147.581C437.585 146.246 437.562 145.052 437.053 144C436.577 142.931 435.496 142.104 433.808 141.517L430.824 140.479C431.587 141.45 432.091 142.599 432.335 143.927C432.554 145.245 432.406 146.647 431.889 148.133C431.285 149.871 430.296 151.292 428.924 152.396C427.527 153.492 425.866 154.17 423.939 154.432C421.997 154.66 419.942 154.397 417.776 153.644C415.61 152.891 413.849 151.827 412.492 150.452C411.143 149.051 410.274 147.493 409.883 145.776C409.492 144.059 409.598 142.331 410.202 140.593ZM423.305 137.865C421.693 137.304 420.263 137.315 419.016 137.898C417.778 138.456 416.935 139.377 416.489 140.661C416.042 141.946 416.127 143.204 416.744 144.434C417.344 145.631 418.45 146.51 420.062 147.07C421.674 147.631 423.112 147.637 424.375 147.088C425.623 146.505 426.47 145.572 426.916 144.287C427.363 143.002 427.274 141.757 426.648 140.552C426.031 139.321 424.917 138.425 423.305 137.865Z" fill="white"/>
</g>
<path d="M553 530.5H370L553 3H736L553 530.5Z" fill="url(#paint8_linear_146_631)"/>
<path d="M553 530.5H370L553 3H736L553 530.5Z" fill="url(#paint9_linear_146_631)"/>
<path d="M553 530.5H370L553 3H736L553 530.5Z" fill="white" fill-opacity="0.2"/>
<path d="M553 530.5H370L553 3H736L553 530.5Z" stroke="url(#paint10_linear_146_631)" stroke-width="5" stroke-linecap="round"/>
<path d="M553 530.5H370L553 3H736L553 530.5Z" stroke="url(#paint11_linear_146_631)" stroke-width="5" stroke-linecap="round"/>
<g filter="url(#filter2_d_146_631)">
<path d="M514.574 362.647L532.634 368.926C535.43 369.898 537.307 371.44 538.267 373.552C539.235 375.639 539.255 378.018 538.327 380.688C537.355 383.484 535.782 385.449 533.608 386.585C531.435 387.721 528.887 387.781 525.965 386.765L528.199 380.342C529.307 380.728 530.229 380.794 530.966 380.542C531.678 380.282 532.183 379.723 532.481 378.867C532.752 378.086 532.71 377.394 532.356 376.791C532.001 376.187 531.345 375.719 530.388 375.386L512.328 369.107L514.574 362.647ZM529.067 338.502L550.15 345.832L547.903 352.293L545.032 351.294C545.736 352.273 546.181 353.43 546.366 354.765C546.535 356.066 546.383 357.397 545.91 358.757C545.349 360.369 544.502 361.669 543.368 362.658C542.208 363.638 540.83 364.232 539.233 364.439C537.637 364.646 535.919 364.43 534.08 363.791L521.764 359.509L523.997 353.086L535.445 357.066C536.855 357.556 538.078 357.572 539.113 357.113C540.147 356.654 540.879 355.808 541.308 354.574C541.746 353.314 541.702 352.183 541.175 351.182C540.648 350.18 539.679 349.433 538.269 348.943L526.821 344.963L529.067 338.502ZM533.164 325.747C533.68 324.261 534.434 323.069 535.423 322.17C536.422 321.247 537.518 320.654 538.71 320.391L535.725 319.353L537.972 312.893L559.016 320.21C560.955 320.884 562.57 321.883 563.86 323.207C565.184 324.514 566.037 326.123 566.417 328.034C566.806 329.92 566.593 332.034 565.779 334.376C564.693 337.5 563.069 339.773 560.909 341.195C558.774 342.627 556.399 343.043 553.784 342.445L556.004 336.06C556.88 336.138 557.676 335.879 558.392 335.281C559.133 334.691 559.696 333.843 560.082 332.734C560.546 331.399 560.523 330.206 560.014 329.154C559.539 328.085 558.457 327.257 556.77 326.67L553.785 325.633C554.548 326.604 555.052 327.753 555.296 329.08C555.516 330.399 555.367 331.801 554.85 333.287C554.246 335.025 553.258 336.446 551.886 337.55C550.489 338.645 548.827 339.324 546.901 339.586C544.958 339.814 542.904 339.551 540.738 338.798C538.571 338.045 536.81 336.981 535.453 335.605C534.105 334.205 533.235 332.646 532.844 330.929C532.453 329.212 532.559 327.485 533.164 325.747ZM546.266 323.018C544.654 322.458 543.225 322.469 541.978 323.052C540.739 323.609 539.897 324.53 539.45 325.815C539.003 327.1 539.088 328.357 539.705 329.588C540.305 330.785 541.411 331.663 543.023 332.224C544.635 332.784 546.073 332.79 547.337 332.242C548.584 331.659 549.431 330.725 549.878 329.441C550.324 328.156 550.235 326.911 549.609 325.705C548.993 324.475 547.878 323.579 546.266 323.018ZM542.079 300.104C542.596 298.618 543.349 297.426 544.339 296.528C545.338 295.605 546.433 295.011 547.626 294.749L544.641 293.711L546.887 287.25L567.932 294.567C569.871 295.241 571.486 296.24 572.776 297.564C574.1 298.872 574.952 300.481 575.333 302.392C575.722 304.277 575.509 306.391 574.694 308.734C573.608 311.857 571.985 314.13 569.825 315.553C567.69 316.984 565.314 317.401 562.699 316.802L564.919 310.417C565.795 310.496 566.592 310.236 567.308 309.638C568.049 309.049 568.612 308.2 568.998 307.092C569.462 305.757 569.439 304.563 568.93 303.511C568.454 302.442 567.373 301.614 565.685 301.028L562.701 299.99C563.464 300.961 563.968 302.11 564.212 303.438C564.431 304.756 564.283 306.158 563.766 307.644C563.162 309.382 562.174 310.803 560.802 311.907C559.404 313.002 557.743 313.681 555.817 313.943C553.874 314.171 551.82 313.908 549.653 313.155C547.487 312.402 545.726 311.338 544.369 309.963C543.021 308.562 542.151 307.004 541.76 305.286C541.369 303.569 541.475 301.842 542.079 300.104ZM555.182 297.376C553.57 296.815 552.141 296.826 550.893 297.409C549.655 297.967 548.812 298.888 548.366 300.172C547.919 301.457 548.004 302.715 548.621 303.945C549.221 305.142 550.327 306.021 551.939 306.581C553.551 307.142 554.989 307.148 556.253 306.599C557.5 306.016 558.347 305.082 558.793 303.798C559.24 302.513 559.151 301.268 558.525 300.063C557.908 298.832 556.794 297.936 555.182 297.376ZM543.883 273.725L571.841 283.446L569.595 289.906L541.636 280.185L543.883 273.725ZM569.497 255.107C570.102 255.318 570.719 255.574 571.347 255.878L566.263 270.499C567.608 270.854 568.76 270.788 569.719 270.303C570.662 269.784 571.322 268.983 571.698 267.9C572.259 266.288 571.969 264.93 570.827 263.828L573.218 256.952C574.481 257.786 575.504 258.862 576.289 260.179C577.082 261.471 577.552 262.919 577.7 264.523C577.848 266.128 577.624 267.786 577.029 269.499C576.311 271.564 575.231 273.25 573.789 274.555C572.347 275.861 570.649 276.682 568.697 277.02C566.744 277.357 564.672 277.145 562.481 276.383C560.29 275.621 558.529 274.515 557.198 273.064C555.876 271.588 555.055 269.891 554.734 267.972C554.413 266.054 554.615 264.049 555.342 261.959C556.052 259.918 557.11 258.254 558.519 256.965C559.927 255.676 561.577 254.866 563.471 254.536C565.373 254.181 567.382 254.372 569.497 255.107ZM565.498 261.128C564.39 260.743 563.377 260.814 562.46 261.342C561.542 261.87 560.886 262.7 560.492 263.834C560.116 264.917 560.111 265.946 560.478 266.92C560.853 267.87 561.59 268.634 562.687 269.213L565.498 261.128ZM571.268 233.693L576.633 235.558L570.853 252.182L565.488 250.317L571.268 233.693ZM568.664 207.078L573.84 208.878L570.083 219.683L575.675 221.628L578.486 213.542L583.511 215.29L580.7 223.375L591.43 227.106L589.184 233.566L562.661 224.344L568.664 207.078ZM581.046 200.335C580.15 199.177 579.571 197.917 579.311 196.556C579.025 195.186 579.122 193.808 579.604 192.423L586.443 194.801L585.825 196.577C585.265 198.189 585.197 199.52 585.622 200.571C586.022 201.614 587.091 202.437 588.829 203.041L598.614 206.444L596.368 212.904L575.286 205.574L577.532 199.114L581.046 200.335ZM598.015 173.088C598.62 173.298 599.236 173.555 599.865 173.858L594.781 188.479C596.126 188.834 597.278 188.769 598.237 188.283C599.18 187.764 599.84 186.963 600.216 185.88C600.777 184.268 600.486 182.911 599.345 181.808L601.736 174.932C602.999 175.766 604.022 176.842 604.806 178.159C605.599 179.451 606.07 180.9 606.218 182.504C606.366 184.108 606.142 185.767 605.547 187.479C604.828 189.545 603.748 191.23 602.306 192.536C600.864 193.841 599.167 194.663 597.215 195C595.262 195.338 593.19 195.125 590.999 194.364C588.808 193.602 587.047 192.495 585.716 191.044C584.394 189.568 583.572 187.871 583.251 185.953C582.93 184.034 583.133 182.03 583.86 179.939C584.569 177.899 585.628 176.234 587.036 174.945C588.444 173.656 590.095 172.847 591.988 172.517C593.89 172.162 595.899 172.352 598.015 173.088ZM594.016 179.108C592.908 178.723 591.895 178.794 590.977 179.322C590.06 179.85 589.404 180.681 589.01 181.814C588.633 182.897 588.628 183.926 588.995 184.901C589.371 185.85 590.108 186.614 591.205 187.194L594.016 179.108ZM606.11 149.806C606.714 150.017 607.331 150.273 607.96 150.577L602.876 165.198C604.221 165.553 605.373 165.487 606.332 165.002C607.275 164.483 607.934 163.682 608.311 162.599C608.871 160.987 608.581 159.629 607.44 158.527L609.831 151.651C611.093 152.485 612.117 153.561 612.901 154.878C613.694 156.17 614.165 157.618 614.313 159.222C614.461 160.827 614.237 162.485 613.641 164.198C612.923 166.263 611.843 167.949 610.401 169.254C608.959 170.56 607.262 171.381 605.309 171.719C603.357 172.056 601.285 171.844 599.094 171.082C596.902 170.32 595.141 169.214 593.811 167.763C592.489 166.287 591.667 164.59 591.346 162.671C591.025 160.753 591.228 158.748 591.955 156.658C592.664 154.618 593.723 152.953 595.131 151.664C596.539 150.375 598.19 149.565 600.083 149.235C601.985 148.88 603.994 149.071 606.11 149.806ZM602.111 155.827C601.003 155.442 599.99 155.513 599.072 156.041C598.155 156.569 597.499 157.4 597.105 158.533C596.728 159.616 596.723 160.645 597.09 161.619C597.466 162.569 598.202 163.333 599.3 163.912L602.111 155.827Z" fill="white"/>
</g>
<path d="M736 530.5H553L736 3H919L736 530.5Z" fill="url(#paint12_linear_146_631)"/>
<path d="M736 530.5H553L736 3H919L736 530.5Z" fill="url(#paint13_linear_146_631)" fill-opacity="0.2"/>
<path d="M736 530.5H553L736 3H919L736 530.5Z" fill="black" fill-opacity="0.2"/>
<path d="M736 530.5H553L736 3H919L736 530.5Z" stroke="url(#paint14_linear_146_631)" stroke-width="5" stroke-linecap="round"/>
<path d="M736 530.5H553L736 3H919L736 530.5Z" stroke="url(#paint15_linear_146_631)" stroke-width="5" stroke-linecap="round"/>
<g filter="url(#filter3_d_146_631)">
<path d="M685.798 367.394L690.974 369.194L687.217 379.999L692.808 381.944L695.62 373.858L700.644 375.605L697.833 383.691L708.563 387.421L706.317 393.882L679.794 384.66L685.798 367.394ZM717.14 363.729C716.422 365.794 715.333 367.505 713.873 368.861C712.422 370.191 710.712 371.051 708.742 371.439C706.781 371.801 704.705 371.602 702.513 370.84C700.347 370.087 698.612 368.947 697.307 367.421C695.978 365.885 695.161 364.133 694.858 362.164C694.554 360.196 694.761 358.178 695.479 356.113C696.198 354.048 697.286 352.337 698.746 350.981C700.206 349.625 701.933 348.758 703.928 348.379C705.898 347.991 707.966 348.173 710.132 348.927C712.298 349.68 714.042 350.836 715.363 352.397C716.667 353.923 717.467 355.683 717.762 357.677C718.065 359.646 717.858 361.664 717.14 363.729ZM711.548 361.785C711.977 360.551 711.887 359.348 711.278 358.176C710.678 356.979 709.534 356.087 707.847 355.501C706.159 354.914 704.713 354.891 703.508 355.432C702.313 355.948 701.5 356.823 701.071 358.057C700.633 359.317 700.723 360.52 701.341 361.666C701.934 362.804 703.086 363.67 704.799 364.266C706.487 364.853 707.924 364.901 709.111 364.41C710.307 363.894 711.119 363.019 711.548 361.785ZM706.543 336.595C705.647 335.437 705.069 334.177 704.808 332.816C704.522 331.446 704.62 330.068 705.101 328.683L711.94 331.061L711.323 332.836C710.762 334.448 710.694 335.78 711.119 336.831C711.519 337.874 712.588 338.697 714.326 339.301L724.111 342.704L721.865 349.164L700.783 341.834L703.029 335.373L706.543 336.595ZM711.167 311.115L716.532 312.98L719.541 304.328L724.528 306.062L721.52 314.714L727.338 316.737L730.74 306.952L735.916 308.751L730.268 324.997L703.745 315.776L709.394 299.53L714.57 301.329L711.167 311.115ZM734.627 292.972L721.179 283.172L723.57 276.296L742.051 291.107L739.279 299.079L715.596 299.229L718 292.315L734.627 292.972ZM741.626 257.25C742.231 257.461 742.847 257.717 743.476 258.021L738.392 272.642C739.737 272.997 740.889 272.931 741.848 272.446C742.791 271.927 743.451 271.126 743.827 270.043C744.388 268.431 744.097 267.073 742.956 265.971L745.347 259.095C746.61 259.929 747.633 261.005 748.417 262.322C749.21 263.614 749.681 265.062 749.829 266.666C749.977 268.271 749.753 269.929 749.158 271.642C748.44 273.707 747.36 275.393 745.918 276.698C744.475 278.004 742.778 278.825 740.826 279.163C738.873 279.5 736.801 279.288 734.61 278.526C732.419 277.764 730.658 276.658 729.327 275.207C728.005 273.731 727.184 272.034 726.863 270.115C726.541 268.197 726.744 266.192 727.471 264.102C728.181 262.062 729.239 260.397 730.647 259.108C732.056 257.819 733.706 257.009 735.6 256.679C737.502 256.324 739.511 256.515 741.626 257.25ZM737.627 263.271C736.519 262.886 735.506 262.957 734.589 263.485C733.671 264.013 733.015 264.844 732.621 265.977C732.244 267.06 732.24 268.089 732.607 269.063C732.982 270.013 733.719 270.777 734.816 271.356L737.627 263.271ZM738.37 245.056C737.475 243.898 736.896 242.638 736.635 241.277C736.349 239.907 736.447 238.529 736.929 237.144L743.767 239.522L743.15 241.298C742.589 242.91 742.522 244.241 742.947 245.292C743.347 246.335 744.415 247.158 746.153 247.762L755.939 251.165L753.692 257.625L732.61 250.295L734.857 243.835L738.37 245.056ZM745.717 212.599L772.213 236.634L769.796 243.586L760.748 235.019L737.402 236.515L739.911 229.299L754.791 229.01L743.287 219.589L745.717 212.599ZM771.25 208.102C770.532 210.167 769.443 211.878 767.984 213.234C766.533 214.564 764.823 215.424 762.853 215.812C760.891 216.174 758.815 215.975 756.624 215.213C754.458 214.46 752.722 213.32 751.418 211.794C750.088 210.258 749.272 208.506 748.968 206.537C748.665 204.569 748.872 202.551 749.59 200.486C750.308 198.421 751.397 196.71 752.857 195.354C754.316 193.998 756.043 193.131 758.039 192.752C760.009 192.364 762.077 192.546 764.243 193.3C766.409 194.053 768.152 195.209 769.473 196.77C770.778 198.296 771.577 200.056 771.872 202.05C772.176 204.019 771.968 206.037 771.25 208.102ZM765.659 206.158C766.088 204.924 765.998 203.721 765.389 202.549C764.789 201.352 763.645 200.46 761.957 199.874C760.269 199.287 758.823 199.264 757.619 199.805C756.423 200.321 755.611 201.196 755.182 202.43C754.744 203.69 754.834 204.893 755.451 206.039C756.044 207.177 757.197 208.043 758.909 208.639C760.597 209.226 762.034 209.274 763.221 208.783C764.417 208.267 765.229 207.392 765.659 206.158ZM759.133 173.283C759.991 170.814 761.48 169.13 763.6 168.229C765.704 167.295 768.154 167.314 770.949 168.286L783.266 172.568L781.033 178.991L769.585 175.011C768.175 174.521 766.952 174.505 765.917 174.964C764.883 175.423 764.151 176.269 763.721 177.504C763.292 178.738 763.341 179.856 763.868 180.858C764.395 181.86 765.364 182.606 766.774 183.096L778.222 187.077L775.976 193.537L754.893 186.207L757.14 179.746L759.936 180.719C759.231 179.74 758.807 178.604 758.664 177.312C758.495 176.011 758.651 174.668 759.133 173.283ZM780.856 144.423C781.46 144.633 782.077 144.89 782.706 145.193L777.622 159.814C778.967 160.169 780.119 160.104 781.078 159.618C782.021 159.099 782.68 158.298 783.057 157.215C783.617 155.603 783.327 154.246 782.186 153.143L784.577 146.267C785.839 147.101 786.863 148.177 787.647 149.494C788.44 150.786 788.91 152.234 789.058 153.839C789.206 155.443 788.983 157.102 788.387 158.814C787.669 160.88 786.589 162.565 785.147 163.871C783.705 165.176 782.008 165.998 780.055 166.335C778.103 166.673 776.031 166.46 773.84 165.698C771.648 164.937 769.887 163.83 768.557 162.379C767.235 160.903 766.413 159.206 766.092 157.288C765.771 155.369 765.974 153.365 766.701 151.274C767.41 149.234 768.469 147.569 769.877 146.28C771.285 144.991 772.936 144.182 774.829 143.852C776.731 143.497 778.74 143.687 780.856 144.423ZM776.857 150.443C775.749 150.058 774.736 150.129 773.818 150.657C772.9 151.185 772.245 152.016 771.85 153.149C771.474 154.232 771.469 155.261 771.836 156.236C772.212 157.185 772.948 157.949 774.046 158.529L776.857 150.443Z" fill="white"/>
</g>
<path d="M919 530.5H736L919 3H1102L919 530.5Z" fill="url(#paint16_linear_146_631)"/>
<path d="M919 530.5H736L919 3H1102L919 530.5Z" fill="url(#paint17_linear_146_631)"/>
<path d="M919 530.5H736L919 3H1102L919 530.5Z" fill="white" fill-opacity="0.2"/>
<path d="M919 530.5H736L919 3H1102L919 530.5Z" stroke="url(#paint18_linear_146_631)" stroke-width="5" stroke-linecap="round"/>
<path d="M919 530.5H736L919 3H1102L919 530.5Z" stroke="url(#paint19_linear_146_631)" stroke-width="5" stroke-linecap="round"/>
<g filter="url(#filter4_d_146_631)">
<path d="M847.428 430.223L852.604 432.023L850.161 439.05L871.507 446.472L869.261 452.933L847.915 445.511L845.471 452.538L840.295 450.739L847.428 430.223ZM871.107 412.546C871.711 412.756 872.328 413.013 872.956 413.316L867.873 427.938C869.217 428.292 870.369 428.227 871.329 427.742C872.272 427.223 872.931 426.422 873.308 425.339C873.868 423.727 873.578 422.369 872.437 421.267L874.828 414.39C876.09 415.225 877.114 416.301 877.898 417.618C878.691 418.91 879.161 420.358 879.309 421.962C879.457 423.567 879.234 425.225 878.638 426.938C877.92 429.003 876.84 430.689 875.398 431.994C873.956 433.3 872.259 434.121 870.306 434.459C868.354 434.796 866.282 434.584 864.09 433.822C861.899 433.06 860.138 431.954 858.807 430.503C857.486 429.027 856.664 427.33 856.343 425.411C856.022 423.493 856.225 421.488 856.952 419.398C857.661 417.357 858.72 415.693 860.128 414.404C861.536 413.115 863.187 412.305 865.08 411.975C866.982 411.62 868.991 411.811 871.107 412.546ZM867.108 418.567C866 418.182 864.987 418.253 864.069 418.781C863.151 419.309 862.496 420.139 862.101 421.273C861.725 422.356 861.72 423.385 862.087 424.359C862.463 425.309 863.199 426.073 864.297 426.652L867.108 418.567ZM872.185 410.541C869.994 409.779 868.233 408.672 866.902 407.222C865.58 405.746 864.754 404.061 864.425 402.168C864.104 400.249 864.302 398.257 865.02 396.192C865.94 393.547 867.399 391.584 869.397 390.303C871.404 388.996 873.763 388.503 876.475 388.825L874.084 395.701C872.271 395.72 871.075 396.561 870.497 398.223C870.085 399.407 870.223 400.513 870.91 401.543C871.571 402.563 872.758 403.371 874.471 403.967C876.184 404.562 877.629 404.669 878.806 404.288C879.958 403.898 880.74 403.111 881.151 401.928C881.729 400.265 881.313 398.864 879.902 397.724L882.293 390.848C884.569 392.26 886.101 394.106 886.89 396.385C887.679 398.663 887.617 401.113 886.707 403.732C885.989 405.797 884.908 407.483 883.466 408.788C882.033 410.069 880.34 410.878 878.388 411.215C876.444 411.527 874.377 411.303 872.185 410.541ZM874.324 369.678C875.164 367.26 876.645 365.601 878.765 364.7C880.859 363.791 883.305 363.823 886.1 364.795L898.417 369.077L896.184 375.5L884.736 371.52C883.326 371.029 882.103 371.013 881.068 371.472C880.034 371.931 879.302 372.778 878.872 374.012C878.443 375.246 878.492 376.364 879.019 377.366C879.546 378.368 880.515 379.114 881.925 379.605L893.373 383.585L891.127 390.046L863.168 380.325L865.415 373.864L875.124 377.24C874.42 376.261 873.988 375.109 873.828 373.783C873.668 372.457 873.833 371.088 874.324 369.678ZM883.136 344.333C883.994 341.865 885.483 340.18 887.603 339.28C889.707 338.345 892.156 338.364 894.952 339.336L907.269 343.619L905.036 350.042L893.588 346.061C892.177 345.571 890.955 345.555 889.92 346.014C888.885 346.473 888.153 347.32 887.724 348.554C887.295 349.788 887.344 350.906 887.871 351.908C888.398 352.91 889.366 353.656 890.777 354.147L902.225 358.127L899.978 364.588L878.896 357.257L881.142 350.797L883.938 351.769C883.234 350.79 882.81 349.655 882.667 348.362C882.498 347.061 882.654 345.718 883.136 344.333ZM912.469 329.638C911.751 331.703 910.662 333.414 909.202 334.77C907.751 336.101 906.041 336.96 904.071 337.348C902.11 337.71 900.034 337.511 897.842 336.749C895.676 335.996 893.941 334.856 892.636 333.33C891.307 331.794 890.49 330.042 890.187 328.074C889.883 326.105 890.09 324.088 890.808 322.022C891.527 319.957 892.615 318.246 894.075 316.89C895.535 315.534 897.262 314.667 899.257 314.288C901.227 313.9 903.295 314.083 905.461 314.836C907.627 315.589 909.371 316.746 910.692 318.306C911.996 319.832 912.796 321.592 913.091 323.587C913.394 325.555 913.187 327.573 912.469 329.638ZM906.877 327.694C907.306 326.46 907.216 325.257 906.607 324.085C906.007 322.888 904.863 321.996 903.176 321.41C901.488 320.823 900.042 320.8 898.837 321.341C897.642 321.857 896.829 322.732 896.4 323.966C895.962 325.226 896.052 326.429 896.67 327.575C897.263 328.713 898.415 329.579 900.128 330.175C901.815 330.762 903.253 330.81 904.44 330.319C905.636 329.803 906.448 328.928 906.877 327.694ZM891.482 298.892L919.44 308.613L917.194 315.073L889.236 305.352L891.482 298.892ZM924.707 294.439C923.989 296.505 922.9 298.215 921.441 299.571C919.99 300.902 918.279 301.761 916.309 302.149C914.348 302.512 912.272 302.312 910.081 301.55C907.914 300.797 906.179 299.657 904.875 298.131C903.545 296.596 902.729 294.844 902.425 292.875C902.121 290.906 902.329 288.889 903.047 286.823C903.765 284.758 904.854 283.047 906.313 281.692C907.773 280.336 909.5 279.468 911.495 279.089C913.465 278.701 915.534 278.884 917.7 279.637C919.866 280.39 921.609 281.547 922.93 283.107C924.235 284.634 925.034 286.394 925.329 288.388C925.632 290.357 925.425 292.374 924.707 294.439ZM919.115 292.495C919.545 291.261 919.455 290.058 918.846 288.886C918.245 287.689 917.101 286.798 915.414 286.211C913.726 285.624 912.28 285.601 911.076 286.142C909.88 286.658 909.068 287.533 908.638 288.768C908.201 290.027 908.291 291.23 908.908 292.376C909.501 293.514 910.654 294.381 912.366 294.976C914.054 295.563 915.491 295.611 916.678 295.12C917.874 294.604 918.686 293.729 919.115 292.495ZM910.833 264.43C911.35 262.944 912.103 261.752 913.093 260.853C914.091 259.93 915.187 259.337 916.379 259.074L913.395 258.036L915.641 251.576L936.685 258.893C938.625 259.567 940.24 260.566 941.53 261.89C942.854 263.197 943.706 264.806 944.086 266.717C944.475 268.603 944.262 270.717 943.448 273.059C942.362 276.183 940.739 278.456 938.578 279.878C936.443 281.31 934.068 281.726 931.453 281.128L933.673 274.743C934.549 274.821 935.345 274.562 936.061 273.964C936.803 273.374 937.366 272.526 937.751 271.417C938.215 270.082 938.193 268.889 937.683 267.837C937.208 266.768 936.127 265.94 934.439 265.353L931.454 264.316C932.218 265.287 932.721 266.436 932.966 267.763C933.185 269.082 933.036 270.484 932.52 271.97C931.915 273.708 930.927 275.129 929.555 276.233C928.158 277.328 926.496 278.007 924.57 278.269C922.627 278.497 920.573 278.234 918.407 277.481C916.241 276.728 914.479 275.664 913.122 274.288C911.774 272.888 910.904 271.329 910.513 269.612C910.122 267.895 910.229 266.168 910.833 264.43ZM923.936 261.701C922.324 261.141 920.894 261.152 919.647 261.735C918.408 262.292 917.566 263.213 917.119 264.498C916.673 265.783 916.758 267.04 917.374 268.271C917.975 269.468 919.081 270.346 920.693 270.907C922.305 271.467 923.743 271.473 925.006 270.925C926.253 270.342 927.1 269.408 927.547 268.124C927.994 266.839 927.904 265.594 927.279 264.388C926.662 263.158 925.548 262.262 923.936 261.701ZM924.754 225.366L951.25 249.401L948.833 256.353L939.785 247.786L916.439 249.282L918.948 242.066L933.828 241.777L922.324 232.356L924.754 225.366ZM936.353 208.571L941.718 210.436L935.938 227.06L930.573 225.194L936.353 208.571ZM931.201 189.286C932.173 186.49 933.576 184.239 935.411 182.534C937.247 180.829 939.369 179.76 941.778 179.327C944.17 178.86 946.677 179.082 949.296 179.993C951.89 180.895 953.994 182.276 955.606 184.135C957.227 185.969 958.223 188.137 958.596 190.638C958.977 193.114 958.686 195.737 957.723 198.508L954.268 208.444L927.746 199.222L931.201 189.286ZM951.987 196.979C952.836 194.536 952.83 192.402 951.968 190.578C951.106 188.753 949.454 187.417 947.01 186.567C944.567 185.718 942.429 185.736 940.596 186.624C938.763 187.511 937.422 189.176 936.572 191.619L935.508 194.68L950.923 200.039L951.987 196.979ZM948.491 168.424C947.595 167.266 947.016 166.006 946.756 164.645C946.47 163.275 946.567 161.898 947.049 160.512L953.888 162.89L953.27 164.666C952.71 166.278 952.642 167.609 953.067 168.66C953.467 169.703 954.536 170.526 956.274 171.131L966.059 174.533L963.813 180.993L942.731 173.663L944.977 167.203L948.491 168.424ZM947.288 153.492C946.894 154.625 946.242 155.443 945.334 155.946C944.408 156.415 943.454 156.479 942.472 156.137C941.465 155.787 940.756 155.145 940.346 154.212C939.92 153.245 939.904 152.195 940.298 151.062C940.684 149.953 941.339 149.165 942.264 148.696C943.173 148.193 944.131 148.117 945.139 148.467C946.121 148.809 946.825 149.463 947.251 150.43C947.661 151.363 947.673 152.384 947.288 153.492ZM950.596 151.042L971.678 158.372L969.432 164.833L948.35 157.503L950.596 151.042ZM970.558 142.106L957.11 132.306L959.501 125.429L977.982 140.24L975.211 148.212L951.527 148.363L953.931 141.449L970.558 142.106ZM977.557 106.384C978.162 106.594 978.779 106.851 979.407 107.154L974.323 121.775C975.668 122.13 976.82 122.065 977.779 121.58C978.722 121.06 979.382 120.259 979.758 119.176C980.319 117.564 980.029 116.207 978.887 115.104L981.278 108.228C982.541 109.062 983.564 110.138 984.349 111.455C985.142 112.748 985.612 114.196 985.76 115.8C985.908 117.404 985.684 119.063 985.089 120.775C984.371 122.841 983.291 124.526 981.849 125.832C980.407 127.137 978.709 127.959 976.757 128.296C974.804 128.634 972.732 128.422 970.541 127.66C968.35 126.898 966.589 125.791 965.258 124.341C963.936 122.865 963.115 121.167 962.794 119.249C962.473 117.33 962.675 115.326 963.402 113.235C964.112 111.195 965.17 109.53 966.579 108.241C967.987 106.952 969.637 106.143 971.531 105.813C973.433 105.458 975.442 105.648 977.557 106.384ZM973.558 112.405C972.45 112.019 971.437 112.09 970.52 112.618C969.602 113.146 968.946 113.977 968.552 115.11C968.176 116.194 968.171 117.222 968.538 118.197C968.913 119.146 969.65 119.911 970.747 120.49L973.558 112.405ZM972.781 86.5043C973.639 84.0359 975.129 82.3515 977.248 81.4511C979.352 80.5168 981.802 80.5356 984.598 81.5077L996.914 85.7902L994.681 92.213L983.233 88.2327C981.823 87.7423 980.6 87.7265 979.565 88.1855C978.531 88.6445 977.799 89.491 977.369 90.7252C976.94 91.9594 976.989 93.0775 977.516 94.0794C978.043 95.0813 979.012 95.8275 980.422 96.3179L991.87 100.298L989.624 106.759L968.542 99.4288L970.788 92.9682L973.584 93.9402C972.879 92.9613 972.456 91.8258 972.312 90.5336C972.143 89.2327 972.3 87.8896 972.781 86.5043Z" fill="white"/>
</g>
<path d="M1102 530.5H919L1102 3H1285L1102 530.5Z" fill="url(#paint20_linear_146_631)"/>
<path d="M1102 530.5H919L1102 3H1285L1102 530.5Z" fill="url(#paint21_linear_146_631)" fill-opacity="0.2"/>
<path d="M1102 530.5H919L1102 3H1285L1102 530.5Z" fill="black" fill-opacity="0.2"/>
<path d="M1102 530.5H919L1102 3H1285L1102 530.5Z" stroke="url(#paint22_linear_146_631)" stroke-width="5" stroke-linecap="round"/>
<path d="M1102 530.5H919L1102 3H1285L1102 530.5Z" stroke="url(#paint23_linear_146_631)" stroke-width="5" stroke-linecap="round"/>
<g filter="url(#filter5_d_146_631)">
<path d="M1008.7 492.558L1023.27 507.913L1032.03 510.961L1029.79 517.422L1021.02 514.374L1000.07 517.381L1002.62 510.051L1015.51 508.775L1006.18 499.812L1008.7 492.558ZM1039.77 489.686C1039.05 491.751 1037.96 493.462 1036.5 494.818C1035.05 496.148 1033.34 497.008 1031.37 497.395C1029.41 497.758 1027.33 497.559 1025.14 496.797C1022.98 496.043 1021.24 494.904 1019.94 493.377C1018.61 491.842 1017.79 490.09 1017.49 488.121C1017.18 486.152 1017.39 484.135 1018.11 482.07C1018.83 480.004 1019.92 478.294 1021.38 476.938C1022.83 475.582 1024.56 474.715 1026.56 474.335C1028.53 473.948 1030.6 474.13 1032.76 474.883C1034.93 475.637 1036.67 476.793 1037.99 478.354C1039.3 479.88 1040.1 481.64 1040.39 483.634C1040.69 485.603 1040.49 487.62 1039.77 489.686ZM1034.18 487.742C1034.61 486.507 1034.52 485.304 1033.91 484.133C1033.31 482.936 1032.16 482.044 1030.48 481.457C1028.79 480.871 1027.34 480.848 1026.14 481.389C1024.94 481.905 1024.13 482.78 1023.7 484.014C1023.26 485.273 1023.35 486.476 1023.97 487.623C1024.56 488.761 1025.72 489.627 1027.43 490.223C1029.12 490.809 1030.55 490.857 1031.74 490.367C1032.94 489.851 1033.75 488.976 1034.18 487.742ZM1030.65 446.973L1051.73 454.303L1049.49 460.764L1046.61 459.766C1047.32 460.745 1047.76 461.901 1047.95 463.236C1048.12 464.537 1047.97 465.868 1047.49 467.228C1046.93 468.84 1046.08 470.14 1044.95 471.129C1043.79 472.11 1042.41 472.703 1040.82 472.91C1039.22 473.118 1037.5 472.902 1035.66 472.262L1023.35 467.98L1025.58 461.557L1037.03 465.537C1038.44 466.028 1039.66 466.043 1040.7 465.584C1041.73 465.125 1042.46 464.279 1042.89 463.045C1043.33 461.785 1043.28 460.655 1042.76 459.653C1042.23 458.651 1041.26 457.905 1039.85 457.414L1028.4 453.434L1030.65 446.973ZM1038.02 437.094C1037.13 435.935 1036.55 434.675 1036.29 433.314C1036 431.944 1036.1 430.567 1036.58 429.181L1043.42 431.559L1042.8 433.335C1042.24 434.947 1042.18 436.279 1042.6 437.33C1043 438.372 1044.07 439.196 1045.81 439.8L1055.59 443.202L1053.35 449.663L1032.26 442.333L1034.51 435.872L1038.02 437.094ZM1059.01 417.301L1061.95 408.838L1066.94 410.572L1061.75 425.496L1035.23 416.274L1037.47 409.814L1059.01 417.301ZM1045.87 396.15C1045.47 397.283 1044.82 398.101 1043.91 398.604C1042.99 399.073 1042.03 399.136 1041.05 398.795C1040.04 398.444 1039.33 397.803 1038.92 396.87C1038.5 395.903 1038.48 394.853 1038.88 393.719C1039.26 392.611 1039.92 391.823 1040.84 391.354C1041.75 390.851 1042.71 390.775 1043.72 391.125C1044.7 391.467 1045.4 392.121 1045.83 393.088C1046.24 394.021 1046.25 395.041 1045.87 396.15ZM1049.17 393.7L1070.26 401.03L1068.01 407.491L1046.93 400.161L1049.17 393.7ZM1059.84 380.305L1058.64 383.781L1074.35 389.245L1072.11 395.706L1056.39 390.241L1055.57 392.584L1050.21 390.718L1051.02 388.376L1050.42 388.166C1047.83 387.264 1046.12 385.837 1045.3 383.887C1044.46 381.928 1044.53 379.513 1045.53 376.642C1045.7 376.163 1045.83 375.815 1045.94 375.597L1051.42 377.502C1050.91 378.71 1050.79 379.64 1051.04 380.293C1051.29 380.945 1051.97 381.464 1053.08 381.849L1053.27 381.915L1054.48 378.439L1059.84 380.305ZM1072.65 359.077C1073.25 359.287 1073.87 359.544 1074.5 359.847L1069.41 374.469C1070.76 374.823 1071.91 374.758 1072.87 374.273C1073.81 373.754 1074.47 372.953 1074.85 371.87C1075.41 370.258 1075.12 368.9 1073.98 367.798L1076.37 360.921C1077.63 361.756 1078.65 362.832 1079.44 364.149C1080.23 365.441 1080.7 366.889 1080.85 368.493C1081 370.098 1080.77 371.756 1080.18 373.469C1079.46 375.534 1078.38 377.22 1076.94 378.525C1075.49 379.831 1073.8 380.652 1071.84 380.99C1069.89 381.327 1067.82 381.115 1065.63 380.353C1063.44 379.591 1061.68 378.485 1060.35 377.034C1059.02 375.558 1058.2 373.861 1057.88 371.942C1057.56 370.024 1057.76 368.019 1058.49 365.929C1059.2 363.888 1060.26 362.224 1061.67 360.935C1063.07 359.646 1064.73 358.836 1066.62 358.506C1068.52 358.151 1070.53 358.342 1072.65 359.077ZM1068.65 365.098C1067.54 364.713 1066.53 364.784 1065.61 365.312C1064.69 365.84 1064.03 366.67 1063.64 367.804C1063.26 368.887 1063.26 369.916 1063.63 370.89C1064 371.84 1064.74 372.604 1065.84 373.183L1068.65 365.098ZM1088 350.981C1087.36 352.82 1086.47 354.347 1085.34 355.564C1084.21 356.781 1082.96 357.617 1081.59 358.071C1080.19 358.517 1078.8 358.554 1077.4 358.182L1079.62 351.797C1080.38 351.975 1081.09 351.841 1081.75 351.394C1082.42 350.947 1082.9 350.283 1083.21 349.401C1083.49 348.595 1083.55 347.926 1083.4 347.392C1083.23 346.825 1082.89 346.454 1082.39 346.279C1081.78 346.069 1081.23 346.23 1080.74 346.764C1080.22 347.288 1079.53 348.194 1078.69 349.482C1077.81 350.871 1077.01 352.003 1076.28 352.88C1075.53 353.747 1074.61 354.401 1073.52 354.843C1072.41 355.275 1071.14 355.242 1069.71 354.743C1068.5 354.323 1067.51 353.614 1066.76 352.618C1065.99 351.587 1065.54 350.329 1065.4 348.843C1065.28 347.332 1065.53 345.682 1066.15 343.894C1067.07 341.249 1068.45 339.399 1070.28 338.343C1072.13 337.262 1074.17 336.985 1076.42 337.511L1074.34 343.481C1073.58 343.328 1072.88 343.454 1072.26 343.859C1071.65 344.239 1071.19 344.87 1070.88 345.751C1070.62 346.507 1070.57 347.139 1070.73 347.647C1070.87 348.146 1071.19 348.483 1071.69 348.659C1072.3 348.869 1072.86 348.712 1073.38 348.187C1073.91 347.637 1074.57 346.735 1075.34 345.48C1076.29 344.058 1077.13 342.926 1077.88 342.084C1078.6 341.233 1079.52 340.596 1080.66 340.172C1081.78 339.714 1083.07 339.726 1084.54 340.209C1085.78 340.638 1086.76 341.376 1087.5 342.423C1088.22 343.436 1088.63 344.694 1088.73 346.196C1088.84 347.673 1088.59 349.268 1088 350.981ZM1090.64 324.73L1096.12 326.635L1094.98 329.922C1094.16 332.264 1092.96 333.893 1091.37 334.809C1089.76 335.716 1087.66 335.718 1085.06 334.816L1076.67 331.9L1075.78 334.469L1070.42 332.604L1071.31 330.034L1066.17 328.248L1068.42 321.787L1073.56 323.574L1075.03 319.342L1080.39 321.208L1078.92 325.439L1087.38 328.382C1088.01 328.601 1088.52 328.607 1088.9 328.401C1089.28 328.195 1089.6 327.74 1089.84 327.035L1090.64 324.73ZM1083.78 294.17L1110.28 318.205L1107.86 325.157L1098.81 316.59L1075.46 318.086L1077.97 310.87L1092.85 310.581L1081.35 301.16L1083.78 294.17ZM1079.96 282.983L1107.92 292.704L1105.67 299.164L1077.71 289.443L1079.96 282.983ZM1105.58 264.365C1106.18 264.576 1106.8 264.832 1107.43 265.136L1102.34 279.757C1103.69 280.112 1104.84 280.046 1105.8 279.561C1106.74 279.042 1107.4 278.241 1107.78 277.158C1108.34 275.546 1108.05 274.188 1106.91 273.086L1109.3 266.21C1110.56 267.044 1111.58 268.12 1112.37 269.437C1113.16 270.729 1113.63 272.177 1113.78 273.782C1113.93 275.386 1113.7 277.044 1113.11 278.757C1112.39 280.822 1111.31 282.508 1109.87 283.813C1108.43 285.119 1106.73 285.94 1104.78 286.278C1102.82 286.615 1100.75 286.403 1098.56 285.641C1096.37 284.879 1094.61 283.773 1093.28 282.322C1091.95 280.846 1091.13 279.149 1090.81 277.23C1090.49 275.312 1090.69 273.307 1091.42 271.217C1092.13 269.177 1093.19 267.512 1094.6 266.223C1096.01 264.934 1097.66 264.124 1099.55 263.795C1101.45 263.439 1103.46 263.63 1105.58 264.365ZM1101.58 270.386C1100.47 270.001 1099.46 270.072 1098.54 270.6C1097.62 271.128 1096.96 271.959 1096.57 273.092C1096.19 274.175 1096.19 275.204 1096.56 276.178C1096.93 277.128 1097.67 277.892 1098.77 278.471L1101.58 270.386ZM1114.09 255.713L1123.47 263.677L1122.04 267.795L1111.96 261.834L1114.09 255.713ZM1105.58 213.92L1120.15 229.275L1128.91 232.323L1126.67 238.784L1117.9 235.736L1096.95 238.743L1099.5 231.413L1112.4 230.137L1103.06 221.174L1105.58 213.92ZM1136.65 211.048C1135.93 213.113 1134.84 214.824 1133.38 216.18C1131.93 217.51 1130.22 218.37 1128.25 218.757C1126.29 219.12 1124.21 218.921 1122.02 218.159C1119.86 217.405 1118.12 216.266 1116.82 214.739C1115.49 213.204 1114.67 211.452 1114.37 209.483C1114.06 207.514 1114.27 205.497 1114.99 203.432C1115.71 201.366 1116.8 199.656 1118.26 198.3C1119.72 196.944 1121.44 196.077 1123.44 195.697C1125.41 195.31 1127.48 195.492 1129.64 196.245C1131.81 196.999 1133.55 198.155 1134.87 199.716C1136.18 201.242 1136.98 203.002 1137.27 204.996C1137.57 206.965 1137.37 208.982 1136.65 211.048ZM1131.06 209.104C1131.49 207.869 1131.4 206.666 1130.79 205.495C1130.19 204.298 1129.04 203.406 1127.36 202.819C1125.67 202.233 1124.22 202.21 1123.02 202.751C1121.82 203.267 1121.01 204.142 1120.58 205.376C1120.14 206.635 1120.23 207.838 1120.85 208.985C1121.44 210.123 1122.6 210.989 1124.31 211.585C1126 212.171 1127.43 212.219 1128.62 211.729C1129.82 211.213 1130.63 210.338 1131.06 209.104ZM1127.53 168.335L1148.61 175.665L1146.37 182.126L1143.5 181.128C1144.2 182.107 1144.64 183.263 1144.83 184.598C1145 185.899 1144.85 187.23 1144.37 188.59C1143.81 190.202 1142.97 191.502 1141.83 192.491C1140.67 193.472 1139.29 194.065 1137.7 194.272C1136.1 194.48 1134.38 194.264 1132.54 193.624L1120.23 189.342L1122.46 182.919L1133.91 186.899C1135.32 187.39 1136.54 187.405 1137.58 186.946C1138.61 186.487 1139.34 185.641 1139.77 184.407C1140.21 183.147 1140.17 182.017 1139.64 181.015C1139.11 180.013 1138.14 179.267 1136.73 178.776L1125.28 174.796L1127.53 168.335ZM1134.9 158.456C1134.01 157.297 1133.43 156.037 1133.17 154.676C1132.88 153.306 1132.98 151.929 1133.46 150.543L1140.3 152.921L1139.68 154.697C1139.12 156.309 1139.06 157.641 1139.48 158.692C1139.88 159.734 1140.95 160.558 1142.69 161.162L1152.47 164.564L1150.23 171.025L1129.14 163.695L1131.39 157.234L1134.9 158.456ZM1138.74 118.557L1143.92 120.356L1141.47 127.384L1162.82 134.806L1160.57 141.266L1139.23 133.844L1136.78 140.872L1131.61 139.072L1138.74 118.557ZM1162.42 100.88C1163.02 101.09 1163.64 101.346 1164.27 101.65L1159.18 116.271C1160.53 116.626 1161.68 116.561 1162.64 116.075C1163.58 115.556 1164.24 114.755 1164.62 113.672C1165.18 112.06 1164.89 110.703 1163.75 109.6L1166.14 102.724C1167.4 103.558 1168.43 104.634 1169.21 105.951C1170 107.243 1170.47 108.691 1170.62 110.296C1170.77 111.9 1170.55 113.558 1169.95 115.271C1169.23 117.337 1168.15 119.022 1166.71 120.328C1165.27 121.633 1163.57 122.455 1161.62 122.792C1159.67 123.13 1157.59 122.917 1155.4 122.155C1153.21 121.394 1151.45 120.287 1150.12 118.836C1148.8 117.36 1147.98 115.663 1147.66 113.745C1147.33 111.826 1147.54 109.821 1148.26 107.731C1148.97 105.691 1150.03 104.026 1151.44 102.737C1152.85 101.448 1154.5 100.639 1156.39 100.309C1158.29 99.9537 1160.3 100.144 1162.42 100.88ZM1158.42 106.9C1157.31 106.515 1156.3 106.586 1155.38 107.114C1154.46 107.642 1153.81 108.473 1153.41 109.606C1153.04 110.689 1153.03 111.718 1153.4 112.693C1153.78 113.642 1154.51 114.406 1155.61 114.985L1158.42 106.9ZM1159.16 88.6855C1158.27 87.5271 1157.69 86.2673 1157.43 84.9061C1157.14 83.5362 1157.24 82.1586 1157.72 80.7733L1164.56 83.151L1163.94 84.9267C1163.38 86.5387 1163.31 87.8703 1163.74 88.9215C1164.14 89.964 1165.21 90.7874 1166.95 91.3916L1176.73 94.7939L1174.49 101.255L1153.4 93.9245L1155.65 87.4639L1159.16 88.6855ZM1168.15 50.7849C1169.06 48.1654 1170.58 46.3632 1172.7 45.3785C1174.83 44.3686 1177.3 44.3541 1180.12 45.3349L1192.44 49.6174L1190.21 56.0402L1178.76 52.0599C1177.4 51.587 1176.23 51.5888 1175.24 52.0653C1174.24 52.5078 1173.52 53.3587 1173.08 54.6181C1172.65 55.8775 1172.68 57.0038 1173.18 57.997C1173.66 58.9562 1174.59 59.6722 1175.95 60.1451L1187.39 64.1255L1185.16 70.5483L1173.71 66.568C1172.35 66.0951 1171.18 66.0969 1170.2 66.5733C1169.2 67.0159 1168.48 67.8668 1168.04 69.1262C1167.6 70.3856 1167.63 71.5119 1168.13 72.505C1168.62 73.4642 1169.54 74.1803 1170.9 74.6532L1182.35 78.6335L1180.1 85.0942L1159.02 77.7641L1161.27 71.3034L1163.91 72.223C1163.26 71.2616 1162.86 70.1644 1162.73 68.9314C1162.57 67.6896 1162.72 66.4012 1163.18 65.0663C1163.73 63.4794 1164.57 62.1872 1165.67 61.1894C1166.79 60.1665 1168.1 59.5213 1169.61 59.254C1168.7 58.1207 1168.1 56.7974 1167.81 55.284C1167.52 53.7707 1167.63 52.2709 1168.15 50.7849ZM1197.29 36.6277C1196.65 38.4664 1195.77 39.9941 1194.64 41.2109C1193.51 42.4276 1192.26 43.2633 1190.89 43.7179C1189.49 44.1638 1188.1 44.2006 1186.7 43.8285L1188.92 37.4434C1189.68 37.6218 1190.39 37.4876 1191.05 37.0407C1191.72 36.5938 1192.2 35.9296 1192.51 35.0481C1192.79 34.2421 1192.85 33.5724 1192.7 33.0391C1192.53 32.4719 1192.19 32.1007 1191.69 31.9256C1191.08 31.7154 1190.53 31.877 1190.04 32.4103C1189.52 32.9349 1188.83 33.8412 1187.99 35.1291C1187.11 36.5177 1186.31 37.6501 1185.58 38.5263C1184.83 39.3937 1183.91 40.0481 1182.82 40.4895C1181.71 40.9222 1180.44 40.8889 1179 40.3898C1177.8 39.9694 1176.81 39.261 1176.06 38.2646C1175.29 37.2342 1174.84 35.976 1174.7 34.49C1174.58 32.9789 1174.83 31.3291 1175.45 29.5408C1176.37 26.8961 1177.75 25.0458 1179.58 23.9899C1181.43 22.9089 1183.47 22.6316 1185.72 23.1581L1183.64 29.1275C1182.87 28.9743 1182.18 29.1003 1181.56 29.5056C1180.95 29.8856 1180.49 30.5164 1180.18 31.398C1179.92 32.1536 1179.87 32.7855 1180.03 33.2936C1180.17 33.7929 1180.49 34.1302 1180.99 34.3053C1181.6 34.5155 1182.16 34.3583 1182.68 33.8337C1183.21 33.2839 1183.86 32.3815 1184.64 31.1265C1185.58 29.7049 1186.43 28.5731 1187.17 27.7309C1187.89 26.8799 1188.82 26.2425 1189.96 25.8186C1191.08 25.3607 1192.37 25.3731 1193.84 25.8559C1195.07 26.285 1196.06 27.023 1196.8 28.0698C1197.52 29.0826 1197.93 30.3403 1198.03 31.8427C1198.13 33.3199 1197.89 34.9149 1197.29 36.6277Z" fill="white"/>
</g>
<defs>
<filter id="filter0_d_146_631" x="79.4497" y="20.667" width="210.702" height="498.701" filterUnits="userSpaceOnUse" color-interpolation-filters="sRGB">
<feFlood flood-opacity="0" result="BackgroundImageFix"/>
<feColorMatrix in="SourceAlpha" type="matrix" values="0 0 0 0 0 0 0 0 0 0 0 0 0 0 0 0 0 0 127 0" result="hardAlpha"/>
<feOffset dy="4"/>
<feGaussianBlur stdDeviation="4"/>
<feComposite in2="hardAlpha" operator="out"/>
<feColorMatrix type="matrix" values="0 0 0 0 0 0 0 0 0 0 0 0 0 0 0 0 0 0 0.2 0"/>
<feBlend mode="normal" in2="BackgroundImageFix" result="effect1_dropShadow_146_631"/>
<feBlend mode="normal" in="SourceGraphic" in2="effect1_dropShadow_146_631" result="shape"/>
</filter>
<filter id="filter1_d_146_631" x="290.792" y="120.547" width="163.691" height="337.987" filterUnits="userSpaceOnUse" color-interpolation-filters="sRGB">
<feFlood flood-opacity="0" result="BackgroundImageFix"/>
<feColorMatrix in="SourceAlpha" type="matrix" values="0 0 0 0 0 0 0 0 0 0 0 0 0 0 0 0 0 0 127 0" result="hardAlpha"/>
<feOffset dy="4"/>
<feGaussianBlur stdDeviation="4"/>
<feComposite in2="hardAlpha" operator="out"/>
<feColorMatrix type="matrix" values="0 0 0 0 0 0 0 0 0 0 0 0 0 0 0 0 0 0 0.2 0"/>
<feBlend mode="normal" in2="BackgroundImageFix" result="effect1_dropShadow_146_631"/>
<feBlend mode="normal" in="SourceGraphic" in2="effect1_dropShadow_146_631" result="shape"/>
</filter>
<filter id="filter2_d_146_631" x="498.886" y="139.869" width="136.495" height="265.596" filterUnits="userSpaceOnUse" color-interpolation-filters="sRGB">
<feFlood flood-opacity="0" result="BackgroundImageFix"/>
<feColorMatrix in="SourceAlpha" type="matrix" values="0 0 0 0 0 0 0 0 0 0 0 0 0 0 0 0 0 0 127 0" result="hardAlpha"/>
<feOffset dy="4"/>
<feGaussianBlur stdDeviation="4"/>
<feComposite in2="hardAlpha" operator="out"/>
<feColorMatrix type="matrix" values="0 0 0 0 0 0 0 0 0 0 0 0 0 0 0 0 0 0 0.2 0"/>
<feBlend mode="normal" in2="BackgroundImageFix" result="effect1_dropShadow_146_631"/>
<feBlend mode="normal" in="SourceGraphic" in2="effect1_dropShadow_146_631" result="shape"/>
</filter>
<filter id="filter3_d_146_631" x="671.794" y="134.984" width="137.955" height="274.379" filterUnits="userSpaceOnUse" color-interpolation-filters="sRGB">
<feFlood flood-opacity="0" result="BackgroundImageFix"/>
<feColorMatrix in="SourceAlpha" type="matrix" values="0 0 0 0 0 0 0 0 0 0 0 0 0 0 0 0 0 0 127 0" result="hardAlpha"/>
<feOffset dy="4"/>
<feGaussianBlur stdDeviation="4"/>
<feComposite in2="hardAlpha" operator="out"/>
<feColorMatrix type="matrix" values="0 0 0 0 0 0 0 0 0 0 0 0 0 0 0 0 0 0 0.2 0"/>
<feBlend mode="normal" in2="BackgroundImageFix" result="effect1_dropShadow_146_631"/>
<feBlend mode="normal" in="SourceGraphic" in2="effect1_dropShadow_146_631" result="shape"/>
</filter>
<filter id="filter4_d_146_631" x="828.555" y="71.2679" width="186.75" height="404.305" filterUnits="userSpaceOnUse" color-interpolation-filters="sRGB">
<feFlood flood-opacity="0" result="BackgroundImageFix"/>
<feColorMatrix in="SourceAlpha" type="matrix" values="0 0 0 0 0 0 0 0 0 0 0 0 0 0 0 0 0 0 127 0" result="hardAlpha"/>
<feOffset dy="4"/>
<feGaussianBlur stdDeviation="4"/>
<feComposite in2="hardAlpha" operator="out"/>
<feColorMatrix type="matrix" values="0 0 0 0 0 0 0 0 0 0 0 0 0 0 0 0 0 0 0.2 0"/>
<feBlend mode="normal" in2="BackgroundImageFix" result="effect1_dropShadow_146_631"/>
<feBlend mode="normal" in="SourceGraphic" in2="effect1_dropShadow_146_631" result="shape"/>
</filter>
<filter id="filter5_d_146_631" x="988.332" y="13.4618" width="229.642" height="528.622" filterUnits="userSpaceOnUse" color-interpolation-filters="sRGB">
<feFlood flood-opacity="0" result="BackgroundImageFix"/>
<feColorMatrix in="SourceAlpha" type="matrix" values="0 0 0 0 0 0 0 0 0 0 0 0 0 0 0 0 0 0 127 0" result="hardAlpha"/>
<feOffset dy="4"/>
<feGaussianBlur stdDeviation="4"/>
<feComposite in2="hardAlpha" operator="out"/>
<feColorMatrix type="matrix" values="0 0 0 0 0 0 0 0 0 0 0 0 0 0 0 0 0 0 0.2 0"/>
<feBlend mode="normal" in2="BackgroundImageFix" result="effect1_dropShadow_146_631"/>
<feBlend mode="normal" in="SourceGraphic" in2="effect1_dropShadow_146_631" result="shape"/>
</filter>
<linearGradient id="paint0_linear_146_631" x1="187" y1="3" x2="187" y2="530.5" gradientUnits="userSpaceOnUse">
<stop stop-color="#033F43"/>
<stop offset="1" stop-color="white" stop-opacity="0"/>
</linearGradient>
<linearGradient id="paint1_linear_146_631" x1="187" y1="3" x2="187" y2="530.5" gradientUnits="userSpaceOnUse">
<stop offset="0.354167" stop-color="#81A3A5" stop-opacity="0"/>
<stop offset="1" stop-color="#535353"/>
</linearGradient>
<linearGradient id="paint2_linear_146_631" x1="187" y1="3" x2="187" y2="530.5" gradientUnits="userSpaceOnUse">
<stop stop-color="#033F43"/>
<stop offset="0.53125" stop-opacity="0"/>
</linearGradient>
<linearGradient id="paint3_linear_146_631" x1="187" y1="3" x2="187" y2="530.5" gradientUnits="userSpaceOnUse">
<stop offset="0.5" stop-opacity="0"/>
<stop offset="1" stop-color="#81A3A5"/>
</linearGradient>
<linearGradient id="paint4_linear_146_631" x1="370" y1="3" x2="370" y2="530.5" gradientUnits="userSpaceOnUse">
<stop stop-color="#D9D9D9" stop-opacity="0"/>
<stop offset="1" stop-color="#033F43"/>
</linearGradient>
<linearGradient id="paint5_linear_146_631" x1="370" y1="3" x2="370" y2="530.5" gradientUnits="userSpaceOnUse">
<stop/>
<stop offset="1" stop-color="#0B0B0B" stop-opacity="0"/>
</linearGradient>
<linearGradient id="paint6_linear_146_631" x1="370" y1="3" x2="370" y2="530.5" gradientUnits="userSpaceOnUse">
<stop stop-color="#033F43"/>
<stop offset="0.53125" stop-opacity="0"/>
</linearGradient>
<linearGradient id="paint7_linear_146_631" x1="370" y1="3" x2="370" y2="530.5" gradientUnits="userSpaceOnUse">
<stop offset="0.5" stop-opacity="0"/>
<stop offset="1" stop-color="#81A3A5"/>
</linearGradient>
<linearGradient id="paint8_linear_146_631" x1="553" y1="3" x2="553" y2="530.5" gradientUnits="userSpaceOnUse">
<stop stop-color="#033F43"/>
<stop offset="1" stop-color="white" stop-opacity="0"/>
</linearGradient>
<linearGradient id="paint9_linear_146_631" x1="553" y1="3" x2="553" y2="530.5" gradientUnits="userSpaceOnUse">
<stop offset="0.354167" stop-color="#81A3A5" stop-opacity="0"/>
<stop offset="1" stop-color="#535353"/>
</linearGradient>
<linearGradient id="paint10_linear_146_631" x1="553" y1="3" x2="553" y2="530.5" gradientUnits="userSpaceOnUse">
<stop stop-color="#033F43"/>
<stop offset="0.53125" stop-opacity="0"/>
</linearGradient>
<linearGradient id="paint11_linear_146_631" x1="553" y1="3" x2="553" y2="530.5" gradientUnits="userSpaceOnUse">
<stop offset="0.5" stop-opacity="0"/>
<stop offset="1" stop-color="#81A3A5"/>
</linearGradient>
<linearGradient id="paint12_linear_146_631" x1="736" y1="3" x2="736" y2="530.5" gradientUnits="userSpaceOnUse">
<stop stop-color="#D9D9D9" stop-opacity="0"/>
<stop offset="1" stop-color="#033F43"/>
</linearGradient>
<linearGradient id="paint13_linear_146_631" x1="736" y1="3" x2="736" y2="530.5" gradientUnits="userSpaceOnUse">
<stop/>
<stop offset="1" stop-color="#0B0B0B" stop-opacity="0"/>
</linearGradient>
<linearGradient id="paint14_linear_146_631" x1="736" y1="3" x2="736" y2="530.5" gradientUnits="userSpaceOnUse">
<stop stop-color="#033F43"/>
<stop offset="0.53125" stop-opacity="0"/>
</linearGradient>
<linearGradient id="paint15_linear_146_631" x1="736" y1="3" x2="736" y2="530.5" gradientUnits="userSpaceOnUse">
<stop offset="0.5" stop-opacity="0"/>
<stop offset="1" stop-color="#81A3A5"/>
</linearGradient>
<linearGradient id="paint16_linear_146_631" x1="919" y1="3" x2="919" y2="530.5" gradientUnits="userSpaceOnUse">
<stop stop-color="#033F43"/>
<stop offset="1" stop-color="white" stop-opacity="0"/>
</linearGradient>
<linearGradient id="paint17_linear_146_631" x1="919" y1="3" x2="919" y2="530.5" gradientUnits="userSpaceOnUse">
<stop offset="0.354167" stop-color="#81A3A5" stop-opacity="0"/>
<stop offset="1" stop-color="#535353"/>
</linearGradient>
<linearGradient id="paint18_linear_146_631" x1="919" y1="3" x2="919" y2="530.5" gradientUnits="userSpaceOnUse">
<stop stop-color="#033F43"/>
<stop offset="0.53125" stop-opacity="0"/>
</linearGradient>
<linearGradient id="paint19_linear_146_631" x1="919" y1="3" x2="919" y2="530.5" gradientUnits="userSpaceOnUse">
<stop offset="0.5" stop-opacity="0"/>
<stop offset="1" stop-color="#81A3A5"/>
</linearGradient>
<linearGradient id="paint20_linear_146_631" x1="1102" y1="3" x2="1102" y2="530.5" gradientUnits="userSpaceOnUse">
<stop stop-color="#D9D9D9" stop-opacity="0"/>
<stop offset="1" stop-color="#033F43"/>
</linearGradient>
<linearGradient id="paint21_linear_146_631" x1="1102" y1="3" x2="1102" y2="530.5" gradientUnits="userSpaceOnUse">
<stop/>
<stop offset="1" stop-color="#0B0B0B" stop-opacity="0"/>
</linearGradient>
<linearGradient id="paint22_linear_146_631" x1="1102" y1="3" x2="1102" y2="530.5" gradientUnits="userSpaceOnUse">
<stop stop-color="#033F43"/>
<stop offset="0.53125" stop-opacity="0"/>
</linearGradient>
<linearGradient id="paint23_linear_146_631" x1="1102" y1="3" x2="1102" y2="530.5" gradientUnits="userSpaceOnUse">
<stop offset="0.5" stop-opacity="0"/>
<stop offset="1" stop-color="#81A3A5"/>
</linearGradient>
</defs>
</svg>
